<?xml version="1.0" standalone="no"?>
<!DOCTYPE svg PUBLIC "-//W3C//DTD SVG 20010904//EN"
 "http://www.w3.org/TR/2001/REC-SVG-20010904/DTD/svg10.dtd">
<svg version="1.0" xmlns="http://www.w3.org/2000/svg"
 width="700.000000pt" height="700.000000pt" viewBox="0 0 700.000000 700.000000"
 preserveAspectRatio="xMidYMid meet">

<g transform="translate(0.000000,700.000000) scale(0.100000,-0.100000)"
fill="#000000" stroke="none">
<path d="M5345 6499 c-467 -39 -911 -73 -1645 -124 -195 -14 -546 -39 -780
-55 -234 -16 -497 -34 -585 -40 -88 -5 -234 -15 -325 -20 -297 -19 -545 -40
-579 -50 -50 -14 -76 -35 -95 -75 -16 -32 -16 -53 -7 -228 6 -106 14 -222 17
-259 l7 -68 41 -11 c80 -21 88 -51 21 -80 -25 -11 -46 -25 -46 -32 -3 -27 3
-111 21 -287 27 -253 82 -846 130 -1379 21 -244 40 -444 42 -446 2 -1 26 1 53
5 38 6 43 8 20 10 -16 1 -38 2 -48 1 -9 -1 -17 2 -17 7 0 6 37 15 83 21 176
23 251 31 279 31 26 0 28 -2 14 -15 -15 -16 -31 -21 -22 -7 2 4 -7 8 -22 9
-24 2 -25 1 -7 -8 17 -8 15 -8 -8 -4 -15 3 -27 1 -27 -5 0 -5 15 -10 33 -10
52 0 107 12 101 21 -3 5 -10 6 -16 3 -6 -4 -8 -2 -5 4 9 13 43 8 40 -7 -2 -6
4 -11 13 -11 8 0 12 -5 9 -10 -12 -19 16 -41 44 -35 30 6 57 -8 47 -24 -4 -6
-16 -11 -27 -11 -13 0 -18 -4 -13 -12 4 -7 3 -8 -4 -4 -6 4 -20 2 -31 -3 -30
-17 -8 -81 28 -81 14 1 14 2 -2 11 -9 5 -17 15 -17 20 0 6 7 3 16 -5 21 -22
40 -21 23 2 -11 14 -11 15 0 5 7 -6 21 -9 30 -6 9 4 4 -4 -11 -15 -29 -24 -28
-62 2 -62 40 0 283 55 385 87 70 22 156 40 235 49 69 8 141 19 160 24 19 6 53
10 75 10 22 0 47 5 55 11 13 9 12 10 -2 5 -10 -3 -18 -1 -18 4 0 5 9 11 20 15
15 5 18 12 13 36 -4 23 -2 29 11 29 26 0 43 21 38 47 -3 17 2 24 23 29 l28 7
-23 12 c-21 11 -19 12 25 18 68 10 105 9 105 -3 0 -6 -11 -8 -26 -4 -18 5 -25
3 -20 -4 4 -6 -1 -8 -13 -5 -10 3 -22 0 -25 -6 -9 -15 11 -14 189 9 83 10 184
22 225 25 41 3 76 8 78 10 11 10 -71 16 -98 6 -17 -5 -37 -8 -45 -5 -7 3 -22
1 -32 -4 -12 -7 -39 -7 -73 -2 l-55 9 53 -3 c28 -2 52 0 52 3 0 4 71 15 158
24 86 10 193 23 238 29 60 8 89 8 110 -1 27 -10 26 -11 -18 -7 -31 2 -45 0
-41 -7 4 -7 -5 -8 -25 -4 -43 9 -167 -4 -150 -15 8 -5 -9 -6 -42 -3 -46 4 -50
3 -25 -5 35 -12 175 -2 175 12 0 5 5 6 10 3 16 -10 319 28 313 39 -4 6 1 6 13
2 23 -9 477 53 485 67 4 5 14 7 23 4 17 -7 346 43 356 53 3 3 21 5 41 6 50 1
379 65 379 74 0 4 -14 7 -31 8 -17 0 -34 4 -38 7 -3 4 5 6 19 4 14 -1 33 1 42
5 10 5 39 13 65 20 l48 12 7 165 c8 186 42 847 63 1259 19 349 19 325 -5 327
-11 1 -22 -2 -25 -8 -4 -5 -1 -9 5 -9 6 0 8 -10 5 -22 -7 -32 -15 -95 -20
-150 -1 -26 -6 -52 -10 -57 -9 -16 -25 -13 -25 4 0 8 5 15 10 15 11 0 14 53 3
63 -3 4 -5 40 -3 79 7 176 5 236 -6 231 -13 -5 -24 -72 -24 -152 0 -31 -5 -76
-11 -101 -15 -64 -16 -68 -24 -138 -6 -53 -43 -158 -45 -127 -4 88 -23 190
-38 202 -16 12 -16 14 3 28 17 13 17 17 6 25 -12 7 -12 11 -2 23 8 11 15 93
21 264 5 136 12 270 15 297 8 68 30 106 60 106 20 0 25 -6 30 -42 3 -24 5 -95
3 -160 -2 -64 1 -114 5 -111 4 2 5 -8 2 -24 l-6 -28 15 25 c8 14 12 28 10 32
-2 3 0 9 6 13 5 3 10 1 10 -5 0 -7 10 -5 29 4 35 19 41 47 41 218 l0 128 -25
-22 c-13 -11 -22 -25 -18 -31 3 -5 9 -4 13 3 5 8 10 9 14 1 4 -6 -2 -16 -13
-22 -15 -10 -17 -18 -10 -36 5 -13 5 -23 1 -23 -4 0 -7 -15 -8 -33 -1 -59 -15
-127 -26 -127 -7 0 -8 42 -2 133 13 225 18 208 -64 200 -53 -6 -54 -6 -41 15
9 14 20 20 31 17 17 -6 35 11 23 23 -3 3 -10 1 -14 -7 -6 -10 -10 -9 -15 5 -4
9 -2 22 4 28 5 5 10 19 10 29 0 16 -3 17 -15 7 -12 -10 -15 -9 -15 4 0 11 7
16 18 14 9 -1 23 1 30 5 8 6 12 1 12 -17 0 -13 -6 -27 -12 -29 -8 -3 -6 -6 5
-6 9 -1 17 5 17 13 0 8 12 24 26 35 31 24 26 57 -6 48 -11 -3 -20 -1 -20 4 0
10 -84 10 -225 -2z m-2115 -243 c0 -3 -4 -8 -10 -11 -5 -3 -10 -1 -10 4 0 6 5
11 10 11 6 0 10 -2 10 -4z m1989 -73 c72 -55 93 -176 45 -271 -77 -154 -261
-112 -290 66 -9 60 12 134 52 181 56 65 126 74 193 24z m441 -13 c0 -5 -5 -10
-11 -10 -5 0 -7 5 -4 10 3 6 8 10 11 10 2 0 4 -4 4 -10z m-7 -55 c-3 -9 -8
-14 -10 -11 -3 3 -2 9 2 15 9 16 15 13 8 -4z m7 -35 c0 -5 -5 -10 -11 -10 -5
0 -7 5 -4 10 3 6 8 10 11 10 2 0 4 -4 4 -10z m-56 -125 c3 -8 1 -15 -4 -15 -6
0 -10 7 -10 15 0 8 2 15 4 15 2 0 6 -7 10 -15z m-1613 -248 c-16 -16 -13 -47
5 -47 23 0 11 -24 -14 -28 -18 -3 -22 2 -22 22 0 23 -3 25 -24 16 -13 -5 -27
-6 -30 -3 -3 4 -6 1 -6 -5 0 -7 11 -12 25 -12 33 0 32 -18 -2 -26 -18 -5 -30
-2 -38 10 -15 20 -25 21 -25 1 0 -14 -12 -19 -32 -16 -5 0 -8 -6 -8 -14 0 -15
-29 -35 -53 -35 -8 0 -19 10 -25 23 -11 22 -11 22 -11 1 -1 -18 -9 -23 -47
-29 -54 -8 -74 5 -74 46 0 26 22 59 40 59 5 0 16 -7 24 -16 15 -14 16 -12 16
20 0 34 2 36 34 36 45 0 63 -22 49 -60 -8 -22 -8 -33 3 -47 12 -16 13 -11 14
43 0 59 1 62 27 69 19 4 31 2 39 -9 10 -15 13 -15 25 0 8 10 23 14 41 12 21
-4 28 0 28 12 0 28 12 31 33 9 14 -15 16 -24 8 -32z m-392 -82 c1 -53 -1 -65
-14 -65 -12 0 -15 13 -15 65 0 48 4 65 14 65 9 0 14 -18 15 -65z m-310 31 c20
-15 40 -22 53 -18 15 4 19 2 13 -7 -4 -7 4 -5 19 4 25 17 27 17 46 0 17 -15
20 -16 20 -3 0 11 14 17 53 21 28 2 55 3 60 0 4 -2 7 -27 7 -54 0 -61 -22 -63
-31 -3 l-6 39 -2 -42 c-1 -31 -5 -43 -16 -43 -10 0 -15 11 -15 35 0 19 -4 35
-10 35 -5 0 -10 -16 -10 -35 0 -24 -5 -35 -15 -35 -8 0 -15 9 -15 20 0 22 -17
26 -40 9 -12 -9 -11 -10 8 -6 14 3 22 0 22 -8 0 -41 -68 -28 -77 15 -8 41 -23
38 -23 -5 0 -24 -5 -35 -15 -35 -11 0 -15 11 -15 40 l0 39 -25 -25 c-14 -14
-25 -34 -25 -45 0 -14 -5 -19 -17 -17 -15 3 -19 16 -21 70 -3 62 -1 67 20 71
13 2 23 5 24 6 0 0 15 -10 33 -23z m1726 -6 c3 -5 1 -10 -4 -10 -6 0 -11 5
-11 10 0 6 2 10 4 10 3 0 8 -4 11 -10z m-2750 -38 c-6 -30 -43 -50 -65 -37 -6
4 -10 -1 -10 -9 0 -9 -4 -16 -10 -16 -5 0 -10 4 -10 9 0 13 -58 19 -70 7 -19
-19 -21 1 -3 33 20 34 43 41 43 14 0 -11 3 -14 8 -7 4 6 22 13 40 16 24 3 32
1 33 -11 0 -14 1 -14 6 -1 7 16 36 41 41 35 2 -2 1 -17 -3 -33z m2873 -3 l-5
-24 -11 25 -11 25 -1 -25 -2 -25 -8 25 c-8 24 -8 24 -9 3 -1 -27 -18 -31 -24
-5 -4 13 -5 12 -6 -5 -1 -17 -7 -21 -31 -21 -24 1 -30 5 -30 23 0 31 40 42 41
12 1 -20 2 -20 9 3 4 14 8 22 9 19 1 -4 16 -3 34 1 38 8 50 0 45 -31z m-303
21 c3 -5 14 -10 24 -10 14 0 17 -6 13 -25 -6 -35 -22 -42 -22 -10 0 24 -2 25
-15 11 -8 -8 -15 -19 -15 -25 0 -6 -4 -11 -10 -11 -11 0 -14 63 -3 73 9 10 21
9 28 -3z m95 -11 c0 6 14 11 30 11 26 0 30 -3 29 -27 0 -24 -2 -25 -8 -9 -7
19 -8 18 -15 -5 l-8 -24 -8 25 -8 25 -2 -25 c-1 -20 -3 -21 -8 -8 -5 13 -11
15 -22 8 -11 -7 -11 -10 -2 -10 7 0 11 -4 7 -10 -9 -14 -35 0 -35 19 0 26 21
43 37 30 9 -8 13 -8 13 0z m-3047 -36 l-5 -33 -57 6 c-87 10 -89 19 -9 41 40
11 74 20 74 19 1 -1 -1 -16 -3 -33z m75 5 l9 -33 12 25 11 25 -3 -25 c-3 -31
-37 -41 -37 -12 0 15 -5 19 -19 15 -11 -3 -22 -12 -24 -22 -3 -9 -5 -2 -6 15
-1 35 5 44 30 44 12 0 22 -11 27 -32z m117 12 c3 -6 -4 -14 -17 -19 -18 -8
-19 -10 -5 -10 10 -1 15 -6 12 -11 -4 -6 -12 -7 -18 -3 -11 7 -16 9 -35 12
-14 2 -10 28 4 28 7 0 10 -7 7 -16 -2 -9 3 -6 13 7 18 24 29 28 39 12z m2515
1 c0 -5 -5 -11 -12 -13 -7 -3 -6 -7 5 -11 9 -3 17 -2 17 3 0 20 19 9 23 -12 4
-20 4 -20 6 4 1 25 4 26 41 24 22 -2 43 1 46 6 3 5 12 4 20 -3 10 -8 14 -8 14
0 0 6 6 11 14 11 9 0 12 -8 8 -25 -5 -29 -22 -44 -22 -21 0 10 -6 13 -16 9
-13 -5 -13 -8 -2 -15 9 -7 7 -8 -9 -5 -13 3 -30 -3 -43 -15 -17 -16 -24 -18
-30 -8 -4 7 -12 10 -18 6 -6 -3 -13 -2 -17 4 -4 6 -13 5 -25 -2 -11 -7 -23 -9
-27 -5 -4 5 -2 12 5 16 10 6 10 10 -2 20 -8 7 -12 19 -9 27 6 15 33 20 33 5z
m-628 -73 c-15 -15 -26 -4 -18 18 5 13 9 15 18 6 9 -9 9 -15 0 -24z m34 12 c0
-11 -4 -20 -8 -20 -4 0 -8 9 -8 20 0 11 4 20 8 20 4 0 8 -9 8 -20z m-166 -11
c0 -18 -2 -19 -15 -9 -11 9 -15 9 -15 1 0 -7 -4 -9 -10 -6 -17 10 -11 23 13
28 12 2 23 5 25 6 1 0 2 -9 2 -20z m70 6 c0 -8 -4 -17 -10 -20 -5 -3 -10 -1
-10 6 0 9 -3 9 -14 0 -15 -12 -32 1 -23 17 9 13 57 11 57 -3z m30 0 c0 -8 -4
-15 -10 -15 -5 0 -10 7 -10 15 0 8 5 15 10 15 6 0 10 -7 10 -15z m-208 -27
c-15 -15 -26 -4 -18 18 5 13 9 15 18 6 9 -9 9 -15 0 -24z m31 12 c3 -11 1 -20
-4 -20 -5 0 -9 9 -9 20 0 11 2 20 4 20 2 0 6 -9 9 -20z m-173 -12 c0 -19 -2
-20 -10 -8 -13 19 -13 30 0 30 6 0 10 -10 10 -22z m90 5 c0 -11 -8 -14 -30
-11 -16 2 -31 0 -33 -6 -3 -6 -8 -8 -12 -4 -16 15 4 33 39 35 27 1 36 -2 36
-14z m-210 -15 c0 -18 -2 -20 -9 -8 -6 8 -7 18 -5 22 9 14 14 9 14 -14z m58 4
c2 -7 -3 -12 -12 -12 -9 0 -16 7 -16 16 0 17 22 14 28 -4z m32 3 c0 -8 -4 -15
-10 -15 -5 0 -10 7 -10 15 0 8 5 15 10 15 6 0 10 -7 10 -15z m-219 -28 c-8 -8
-11 -7 -11 4 0 20 13 34 18 19 3 -7 -1 -17 -7 -23z m49 13 c0 -11 -4 -20 -9
-20 -14 0 -23 18 -16 30 10 17 25 11 25 -10z m50 5 c0 -8 -4 -15 -10 -15 -5 0
-10 7 -10 15 0 8 5 15 10 15 6 0 10 -7 10 -15z m-190 -11 c0 -8 -4 -12 -10 -9
-5 3 -10 10 -10 16 0 5 5 9 10 9 6 0 10 -7 10 -16z m30 1 c0 -8 -4 -15 -10
-15 -5 0 -10 7 -10 15 0 8 5 15 10 15 6 0 10 -7 10 -15z m40 0 c0 -8 -7 -15
-15 -15 -8 0 -15 7 -15 15 0 8 7 15 15 15 8 0 15 -7 15 -15z m-550 -26 c0 -5
-10 -10 -22 -10 -13 -1 -33 -3 -45 -4 -13 -1 -23 3 -23 9 0 7 -3 7 -8 1 -4 -5
-16 -11 -27 -12 -70 -6 -100 -6 -103 3 -1 5 6 10 15 10 10 1 51 4 91 8 59 5
72 4 67 -6 -3 -7 0 -6 6 3 12 16 49 15 49 -2z m-254 2 c10 8 13 6 11 -9 -1
-15 -7 -20 -24 -18 -13 2 -23 6 -23 9 0 4 0 12 0 19 0 9 3 9 12 0 8 -8 15 -8
24 -1z m130 -51 c27 0 14 -18 -16 -22 -25 -4 -30 -1 -30 15 0 13 5 17 16 13 9
-3 22 -6 30 -6z m45 1 c7 11 9 10 9 -3 0 -10 -7 -18 -15 -18 -8 0 -15 8 -14
18 0 12 2 13 6 3 5 -11 7 -11 14 0z m-104 -17 c0 -7 -20 -11 -50 -10 -27 1
-51 -3 -54 -8 -3 -4 -9 -2 -14 5 -4 7 -6 16 -4 20 8 11 122 5 122 -7z m-187
-18 c0 -18 -51 -27 -69 -13 -11 9 -15 9 -19 -1 -3 -10 -7 -10 -18 -1 -9 7 -14
8 -14 1 0 -7 -13 -9 -34 -5 -19 3 -36 1 -40 -6 -4 -6 -13 -11 -19 -11 -7 0 -6
4 3 10 11 7 7 10 -19 10 -19 0 -42 -7 -52 -16 -14 -12 -22 -13 -39 -4 -12 6
-19 14 -15 18 3 3 70 11 148 18 195 16 187 16 187 0z m3204 -17 c-4 -8 -9 -22
-9 -31 -2 -21 -13 -34 -21 -25 -4 4 -1 13 6 22 8 10 9 15 1 15 -15 0 -14 23 1
38 15 15 33 -1 22 -19z m-3553 -15 c25 -12 28 -18 18 -30 -14 -17 2 -19 19 -2
8 8 15 8 27 -2 11 -9 15 -9 15 -1 0 8 12 10 38 6 27 -5 33 -4 22 4 -9 7 -10
11 -3 11 6 0 15 -4 18 -10 7 -11 55 -10 55 1 0 4 18 5 40 3 22 -2 40 1 40 6 0
6 14 10 30 10 19 0 30 -5 30 -14 0 -10 -37 -16 -155 -26 -85 -7 -166 -9 -179
-6 -14 3 -27 2 -30 -3 -3 -5 -61 -12 -128 -16 -68 -3 -130 -8 -139 -11 -12 -3
-18 5 -22 33 -4 20 -5 38 -4 39 3 4 187 21 235 23 24 0 57 -6 73 -15z m420
-17 c-8 -8 -11 -7 -11 4 0 20 13 34 18 19 3 -7 -1 -17 -7 -23z m50 18 c15 10
89 11 89 2 0 -10 -15 -15 -72 -21 -39 -4 -46 -2 -43 12 5 27 6 28 12 14 2 -6
9 -10 14 -7z m3074 -75 c-3 -5 -10 -10 -16 -10 -5 0 -9 5 -9 10 0 6 7 10 16
10 8 0 12 -4 9 -10z m0 -50 c-3 -5 -10 -10 -16 -10 -5 0 -9 5 -9 10 0 6 7 10
16 10 8 0 12 -4 9 -10z m-865 -89 c13 -25 3 -51 -20 -51 -10 0 -21 7 -24 16
-7 17 10 54 24 54 5 0 14 -9 20 -19z m860 5 c0 -3 -4 -8 -10 -11 -5 -3 -10 -1
-10 4 0 6 5 11 10 11 6 0 10 -2 10 -4z m-959 -61 c47 -25 69 -70 69 -143 0
-64 -21 -124 -54 -151 -14 -12 -13 -19 11 -64 14 -29 39 -71 54 -94 16 -23 29
-43 29 -46 0 -9 -82 -28 -100 -22 -11 3 -37 42 -62 90 -29 57 -49 85 -60 85
-16 0 -17 -9 -11 -95 l6 -95 -34 0 c-19 0 -44 -3 -56 -6 l-21 -6 -1 245 c0
135 -3 257 -7 271 -5 22 -2 26 23 31 15 4 33 8 38 10 31 10 149 3 176 -10z
m-606 -89 c15 -22 15 -27 1 -54 -22 -44 -62 -55 -90 -26 -22 21 -20 46 5 78
26 33 63 34 84 2z m-1287 -80 c103 -53 120 -205 33 -296 -30 -31 -48 -41 -100
-51 l-63 -13 3 -96 4 -95 -56 -3 -57 -3 -7 198 c-4 109 -8 234 -9 278 l-1 80
40 6 c78 12 185 9 213 -5z m1580 -31 c39 -33 54 -72 50 -131 l-3 -49 -85 -11
c-47 -7 -91 -13 -97 -13 -24 -2 -14 -49 14 -71 32 -25 68 -22 114 11 l29 20
12 -26 c22 -49 -29 -94 -118 -102 -51 -4 -64 -2 -93 19 -51 35 -71 81 -71 161
0 69 17 125 48 161 54 61 147 75 200 31z m-304 -21 c24 -23 24 -359 0 -368
-26 -10 -61 -7 -72 7 -7 8 -12 79 -12 187 -2 160 0 175 17 181 30 12 51 10 67
-7z m-167 -18 l28 -24 6 -164 c4 -114 3 -165 -5 -170 -6 -4 -29 -8 -51 -8
l-40 0 0 135 c0 110 -3 137 -15 145 -20 13 -23 12 -46 -4 -17 -13 -19 -26 -17
-150 l3 -135 -46 -7 c-25 -3 -47 -4 -51 -1 -3 3 -5 60 -4 126 1 71 -2 129 -9
141 -15 28 -46 25 -66 -6 -15 -21 -16 -43 -11 -149 l6 -123 -50 -7 c-28 -4
-52 -5 -54 -3 -2 2 -5 86 -5 187 -2 195 -1 201 47 201 12 0 28 -6 35 -14 11
-11 17 -10 41 10 37 31 96 33 122 4 18 -20 19 -20 39 -2 53 48 101 54 143 18z
m-523 -51 c39 -26 58 -73 54 -135 l-3 -55 -99 -12 c-54 -7 -101 -15 -104 -18
-3 -3 2 -21 11 -39 11 -24 25 -36 45 -41 31 -6 94 14 106 34 12 18 23 12 36
-19 11 -27 10 -33 -6 -52 -63 -70 -211 -62 -265 14 -29 40 -45 141 -30 194 26
97 106 160 189 150 23 -3 53 -13 66 -21z m-280 -1 c17 -6 21 -41 10 -82 -6
-19 -11 -22 -35 -17 -22 5 -31 1 -45 -19 -14 -22 -16 -47 -13 -154 l4 -127
-51 -3 -52 -3 -4 188 c-3 127 -1 190 6 195 18 13 64 9 79 -6 13 -13 17 -12 37
10 24 25 37 28 64 18z m1711 -313 c-26 -23 -2269 -249 -2281 -230 -6 10 38 15
321 39 357 30 1782 178 1870 194 42 7 99 6 90 -3z m-845 -177 c0 -4 -9 -21
-20 -38 -22 -36 -93 -216 -87 -222 2 -2 19 20 38 49 37 56 92 99 115 90 21 -8
17 -33 -5 -33 -11 0 -33 -11 -49 -25 -28 -23 -29 -27 -21 -72 11 -55 34 -93
61 -101 15 -4 17 -7 6 -13 -38 -24 -81 8 -100 76 l-11 40 -30 -64 c-26 -55
-32 -62 -42 -47 -19 26 0 113 57 259 17 43 40 84 51 92 23 16 37 19 37 9z
m180 -43 c0 -23 -28 -54 -41 -46 -14 9 -11 32 7 49 21 21 34 20 34 -3z m-710
-31 c11 -11 20 -29 20 -40 0 -49 -61 -120 -103 -120 -16 0 -13 5 14 23 35 23
58 79 46 111 -10 24 -58 20 -104 -10 -107 -70 -167 -261 -109 -349 29 -44 104
-25 171 43 19 20 35 31 35 24 0 -7 -21 -34 -47 -61 -155 -160 -299 -4 -199
214 58 128 218 223 276 165z m834 -6 c21 -8 21 -53 0 -82 -9 -13 -40 -37 -70
-53 -53 -30 -68 -54 -40 -65 18 -7 52 10 89 44 16 16 27 21 27 12 0 -22 -76
-88 -111 -95 -41 -9 -63 12 -61 59 3 74 79 169 149 186 1 0 8 -3 17 -6z m-171
-40 c3 -3 -3 -30 -13 -60 -21 -61 -27 -117 -16 -151 7 -21 5 -22 -16 -14 -21
8 -23 15 -23 72 1 86 42 179 68 153z m-333 -60 c0 -3 -14 -17 -30 -31 -40 -33
-70 -93 -70 -137 0 -43 12 -52 43 -31 35 23 61 86 54 134 -3 28 -1 41 9 45 15
6 34 -22 34 -51 0 -32 -50 -122 -80 -143 -57 -40 -110 -20 -110 43 0 39 52
130 89 154 32 22 61 30 61 17z m-200 -40 c0 -3 -14 -17 -31 -32 -57 -47 -92
-164 -54 -179 44 -16 103 101 84 166 -2 8 4 17 13 19 46 10 28 -101 -27 -165
-46 -54 -91 -66 -118 -32 -39 48 12 175 83 211 36 19 50 22 50 12z m1877 -230
c-3 -3 -12 -4 -19 -1 -8 3 -5 6 6 6 11 1 17 -2 13 -5z m-47 -11 c-8 -2 -30
-12 -49 -20 -18 -8 -61 -15 -95 -15 -42 0 -55 -3 -41 -9 14 -6 7 -7 -22 -4
-23 2 -57 0 -74 -5 -18 -5 -37 -6 -43 -3 -6 4 59 19 144 34 150 26 213 33 180
22z m-347 -60 c-7 -2 -21 -2 -30 0 -10 3 -4 5 12 5 17 0 24 -2 18 -5z m-68
-13 c-27 -12 -35 -12 -35 0 0 6 12 10 28 9 24 0 25 -1 7 -9z m-111 -14 c-33
-7 -67 -16 -74 -21 -8 -5 -28 -10 -44 -11 -17 -2 -56 -8 -86 -14 -30 -5 -98
-14 -150 -20 -170 -17 -205 -21 -220 -27 -8 -4 -33 -8 -55 -9 -59 -3 -100 -10
-113 -17 -6 -4 -30 -4 -54 0 -38 6 -27 9 92 24 74 10 235 31 357 48 121 17
229 28 240 24 10 -3 15 -2 10 3 -10 10 79 32 128 32 17 0 3 -6 -31 -12z
m-1639 -76 c3 -5 -5 -15 -19 -22 -28 -12 -31 -19 -16 -34 6 -6 5 -17 -6 -32
-15 -22 -41 -32 -28 -10 5 8 2 9 -9 5 -13 -5 -16 -1 -14 16 1 12 7 25 12 29 6
5 5 8 -2 8 -7 0 -13 5 -13 10 0 6 7 10 15 10 21 0 19 18 -2 23 -10 3 3 5 29 6
26 0 50 -3 53 -9z m-419 -110 c1 -14 5 -33 9 -42 5 -13 2 -18 -9 -18 -9 0 -16
7 -16 15 0 8 -5 15 -11 15 -6 0 -9 -7 -5 -15 3 -9 0 -15 -8 -15 -9 0 -15 15
-18 41 -4 47 -2 51 32 47 19 -2 25 -9 26 -28z m-170 12 c15 -10 16 -75 1 -84
-30 -19 -45 -8 -49 35 -4 40 4 57 27 57 6 0 15 -4 21 -8z m98 -8 c12 -32 6
-55 -19 -66 -41 -18 -68 18 -49 66 4 9 18 16 34 16 16 0 30 -7 34 -16z m-165
-38 c15 -41 10 -56 -14 -36 -13 11 -18 10 -30 -6 -14 -18 -14 -18 -15 8 0 38
18 80 32 76 7 -3 19 -21 27 -42z m-79 24 c0 -5 -8 -10 -17 -11 -14 0 -13 -3 5
-11 33 -16 26 -52 -10 -56 -16 -2 -28 1 -28 7 0 6 8 11 18 11 16 1 16 1 0 14
-18 13 -23 37 -11 49 10 11 43 8 43 -3z m940 0 c17 -5 5 -7 -37 -6 -34 0 -56
4 -50 8 15 9 53 9 87 -2z m-440 -100 c0 -47 2 -50 26 -50 43 0 27 -32 -18 -35
l-36 -2 -7 58 c-7 62 -3 79 21 79 10 0 14 -13 14 -50z m-65 -12 c10 -29 20
-59 23 -65 6 -19 -35 -16 -42 2 -8 21 -36 19 -36 -3 0 -27 21 -44 37 -31 9 8
13 8 13 0 0 -6 -3 -11 -7 -12 -5 0 -16 -2 -26 -4 -9 -2 -15 1 -11 6 3 5 3 9 0
9 -2 0 -13 3 -23 7 -16 6 -16 5 -4 -10 12 -15 12 -17 -4 -11 -13 5 -16 4 -11
-4 4 -8 2 -10 -8 -6 -12 5 -12 10 -1 37 7 18 18 56 25 85 10 43 16 52 34 52
18 0 26 -11 41 -52z m-107 -26 c3 -55 1 -62 -16 -62 -10 0 -27 16 -40 38 l-23
37 7 -40 c4 -22 12 -44 18 -48 7 -6 4 -7 -7 -3 -10 3 -25 6 -33 6 -11 0 -14
16 -14 65 0 55 3 65 17 65 10 0 27 -12 39 -27 l21 -27 -5 33 c-4 28 -2 32 14
29 16 -3 20 -14 22 -66z m-185 38 c-3 -13 -14 -20 -28 -20 -27 0 -49 -24 -41
-45 7 -18 34 -31 44 -20 4 4 1 10 -5 12 -23 8 -14 33 11 33 21 0 24 -6 28 -39
5 -51 -21 -86 -56 -77 -21 5 -24 3 -21 -13 2 -12 -3 -21 -16 -24 -16 -4 -18
-3 -9 8 6 7 10 17 9 21 -4 22 2 33 16 28 24 -10 17 10 -7 21 -18 8 -24 20 -26
51 -3 48 11 64 66 75 20 3 38 7 39 8 0 0 -1 -8 -4 -19z m60 -40 c3 -34 11 -67
17 -75 8 -10 9 -15 2 -15 -6 0 -14 5 -17 10 -8 13 -25 13 -25 -1 0 -5 5 -7 12
-3 7 4 8 3 4 -4 -4 -7 -2 -12 5 -12 7 0 10 -2 7 -5 -3 -3 -12 -3 -20 0 -11 4
-17 27 -22 76 -7 74 -3 89 18 89 9 0 15 -20 19 -60z m-182 8 c1 -51 8 -81 22
-90 7 -5 0 -8 -19 -8 -31 0 -32 1 -37 58 -5 63 -3 72 19 72 9 0 14 -11 15 -32z
m-55 -23 c0 -22 5 -49 11 -60 6 -11 8 -25 6 -31 -2 -6 4 -15 14 -18 10 -4 19
-2 21 3 7 20 20 11 15 -9 -7 -27 -54 -27 -70 -1 -10 15 -10 21 0 24 7 3 2 6
-10 6 -13 1 -22 4 -22 9 4 21 -2 42 -10 38 -5 -3 -7 -15 -4 -27 4 -15 0 -22
-16 -26 -22 -5 -30 -23 -10 -23 6 0 8 -9 3 -22 -9 -32 -12 -34 -35 -20 -17 11
-24 11 -37 0 -15 -12 -16 -11 -3 5 8 10 21 15 28 12 9 -3 13 0 11 7 -3 7 2 19
10 27 9 10 13 34 12 75 -1 34 -2 65 -1 69 0 5 20 7 44 5 42 -3 42 -3 43 -43z
m-128 27 c22 -14 31 -66 17 -93 -7 -13 -11 -28 -8 -33 4 -5 1 -6 -5 -3 -5 4
-17 4 -26 1 -14 -5 -14 -9 -4 -22 7 -9 -6 -1 -29 18 -48 37 -57 76 -27 118 15
22 57 29 82 14z m657 -74 c-24 -14 -56 -18 -49 -6 4 5 12 7 20 4 7 -3 16 -1
19 4 4 6 12 10 18 10 7 0 3 -6 -8 -12z m-185 -28 c0 -5 -10 -10 -22 -9 -22 0
-22 1 -3 9 11 5 21 9 23 9 1 1 2 -3 2 -9z m-53 -16 c-3 -3 -12 -4 -19 -1 -8 3
-5 6 6 6 11 1 17 -2 13 -5z m-497 -18 c0 -11 -19 -15 -25 -6 -3 5 1 10 9 10 9
0 16 -2 16 -4z m190 -21 c0 -8 -7 -15 -15 -15 -13 0 -14 3 -3 15 16 18 18 18
18 0z m-218 -15 c-2 -10 0 -11 10 -2 11 8 17 6 26 -9 10 -16 9 -19 -5 -20 -16
0 -15 -2 2 -9 17 -7 15 -9 -12 -9 -34 -1 -45 14 -31 42 8 15 5 17 -19 12 -23
-4 -24 -4 -8 4 25 12 41 8 37 -9z m60 5 c0 -5 -5 -10 -11 -11 -8 -2 -7 -1 0 3
8 4 7 8 -2 15 -11 8 -11 9 -1 6 8 -2 14 -8 14 -13z m155 -21 c-3 -3 -12 -4
-19 -1 -8 3 -5 6 6 6 11 1 17 -2 13 -5z m-237 -20 c0 -3 -7 -12 -15 -20 -16
-17 -18 -14 -9 10 6 15 24 23 24 10z"/>
<path d="M5084 6186 c-41 -18 -76 -64 -68 -89 4 -12 2 -17 -4 -13 -14 8 -20
-26 -8 -40 7 -8 16 -5 31 8 20 19 20 19 28 -39 6 -37 5 -64 -2 -75 -7 -12 -6
-18 4 -21 7 -3 16 1 19 9 3 8 11 14 18 12 7 -1 32 8 55 20 23 12 49 22 58 22
18 0 19 7 3 24 -10 10 -17 8 -38 -11 -31 -29 -56 -29 -64 0 -18 68 6 123 44
99 29 -18 37 18 10 40 -12 10 -17 18 -10 18 7 0 18 -7 25 -17 7 -9 17 -13 23
-9 17 10 15 36 -3 36 -8 0 -15 8 -15 18 -1 16 -1 16 -11 0 -11 -20 -29 -24
-29 -7 0 5 5 7 10 4 6 -3 10 -2 10 3 0 16 -13 22 -27 11 -9 -9 -13 -8 -13 0 0
14 -8 13 -46 -3z m26 -52 c-17 -8 -40 -24 -51 -36 -19 -21 -19 -21 -10 -2 6
13 7 25 1 32 -7 8 -7 9 1 3 7 -6 23 -2 42 9 17 11 35 16 40 13 5 -3 -5 -12
-23 -19z m-6 -121 c6 -51 4 -63 -7 -63 -18 0 -30 99 -14 118 13 17 13 16 21
-55z"/>
<path d="M5141 6031 c-1 -28 3 -41 8 -35 6 5 6 24 1 44 l-8 35 -1 -44z"/>
<path d="M5180 6035 c0 -8 2 -15 4 -15 2 0 6 7 10 15 3 8 1 15 -4 15 -6 0 -10
-7 -10 -15z"/>
<path d="M5255 6040 c-3 -5 -1 -10 4 -10 6 0 11 5 11 10 0 6 -2 10 -4 10 -3 0
-8 -4 -11 -10z"/>
<path d="M5030 5991 c0 -17 -6 -31 -16 -35 -22 -9 -9 -43 32 -81 28 -26 41
-32 74 -30 24 1 37 -2 33 -8 -3 -5 9 1 28 14 19 13 36 25 38 26 1 1 0 6 -3 11
-3 6 -22 4 -48 -5 -75 -26 -141 23 -131 97 3 22 3 40 -1 40 -3 0 -6 -13 -6
-29z"/>
<path d="M5248 5973 c-7 -16 -19 -36 -27 -46 -11 -14 -12 -20 -2 -30 9 -9 14
-9 21 3 5 8 8 19 7 25 -2 5 2 16 10 23 12 13 19 52 8 52 -3 0 -11 -12 -17 -27z"/>
<path d="M5181 5949 c-13 -5 -37 -19 -54 -31 -27 -19 -28 -22 -11 -28 27 -10
50 -2 79 27 39 39 34 51 -14 32z"/>
<path d="M3900 5689 c0 -5 5 -7 10 -4 6 3 10 8 10 11 0 2 -4 4 -10 4 -5 0 -10
-5 -10 -11z"/>
<path d="M3729 5690 c0 -3 -3 -16 -5 -30 -4 -24 -4 -24 13 -8 13 14 15 21 5
30 -7 7 -12 10 -13 8z"/>
<path d="M3820 5665 c0 -14 5 -25 10 -25 6 0 10 11 10 25 0 14 -4 25 -10 25
-5 0 -10 -11 -10 -25z"/>
<path d="M3640 5629 c0 -5 5 -7 10 -4 6 3 10 8 10 11 0 2 -4 4 -10 4 -5 0 -10
-5 -10 -11z"/>
<path d="M3655 5601 c-17 -7 -16 -9 11 -13 24 -3 31 -1 27 9 -6 15 -9 15 -38
4z"/>
<path d="M3243 5631 c1 -12 6 -20 12 -18 14 5 13 29 -2 34 -7 3 -11 -4 -10
-16z"/>
<path d="M3388 5613 c7 -3 16 -2 19 1 4 3 -2 6 -13 5 -11 0 -14 -3 -6 -6z"/>
<path d="M1915 5600 c-3 -5 1 -10 9 -10 9 0 16 5 16 10 0 6 -4 10 -9 10 -6 0
-13 -4 -16 -10z"/>
<path d="M1966 5342 c-2 -4 -25 -7 -51 -5 -39 2 -47 0 -55 -20 -6 -16 -9 -17
-9 -5 -1 30 -20 29 -35 -1 l-16 -30 58 5 c31 3 74 5 95 4 26 -1 37 3 37 14 0
8 3 21 6 30 6 16 -20 24 -30 8z"/>
<path d="M4683 5110 c2 -8 10 -15 17 -15 7 0 15 7 17 15 4 13 3 13 -6 0 -10
-13 -12 -13 -22 0 -9 13 -10 13 -6 0z"/>
<path d="M4497 5003 c-4 -3 -7 -47 -7 -96 l0 -89 32 6 c52 10 73 38 73 97 0
41 -4 54 -24 70 -23 19 -61 25 -74 12z"/>
<path d="M2608 4832 c-16 -3 -18 -16 -18 -98 0 -88 1 -94 20 -94 35 0 77 28
90 59 30 73 -22 148 -92 133z"/>
<path d="M4183 4808 c-11 -13 -23 -36 -27 -51 -7 -28 -6 -28 31 -22 79 13 83
15 83 39 0 25 -28 56 -52 56 -8 0 -24 -10 -35 -22z"/>
<path d="M3180 4710 c-11 -11 -20 -33 -20 -50 0 -26 3 -30 23 -26 12 3 39 8
60 11 41 7 48 25 21 63 -19 28 -57 29 -84 2z"/>
<path d="M4127 4149 c-34 -39 -53 -79 -38 -79 4 0 26 16 49 36 28 24 42 44 42
60 0 34 -13 30 -53 -17z"/>
<path d="M2710 3559 c0 -5 5 -7 10 -4 6 3 10 8 10 11 0 2 -4 4 -10 4 -5 0 -10
-5 -10 -11z"/>
<path d="M2626 3551 c-7 -11 3 -41 14 -41 11 0 21 30 14 41 -3 5 -9 9 -14 9
-5 0 -11 -4 -14 -9z"/>
<path d="M2534 3321 c4 -5 0 -12 -6 -14 -9 -4 -7 -6 3 -6 9 -1 22 6 29 14 10
13 9 15 -9 15 -12 0 -20 -4 -17 -9z"/>
<path d="M2340 3400 c0 -5 4 -10 9 -10 6 0 13 5 16 10 3 6 -1 10 -9 10 -9 0
-16 -4 -16 -10z"/>
<path d="M2300 3270 c0 -5 5 -10 11 -10 5 0 7 5 4 10 -3 6 -8 10 -11 10 -2 0
-4 -4 -4 -10z"/>
<path d="M2217 3393 c-4 -3 -7 -19 -7 -35 0 -21 5 -28 19 -28 22 0 34 25 26
51 -6 19 -26 25 -38 12z"/>
<path d="M5616 6451 c-20 -22 -21 -51 0 -51 11 0 13 6 9 19 -4 13 0 23 11 29
9 5 12 12 7 15 -6 4 -18 -2 -27 -12z"/>
<path d="M5644 6400 c-1 -22 3 -40 9 -40 5 0 3 -8 -6 -18 -19 -21 -11 -38 10
-21 14 12 17 58 7 97 -10 34 -19 26 -20 -18z"/>
<path d="M5575 6366 c-14 -16 -17 -36 -6 -36 10 0 26 39 19 45 -1 2 -7 -2 -13
-9z"/>
<path d="M5661 6303 c-1 -7 -8 -13 -16 -13 -15 0 -20 -12 -9 -23 10 -9 36 22
31 36 -4 9 -6 9 -6 0z"/>
<path d="M5610 5821 c0 -5 9 -11 20 -14 11 -3 20 -11 20 -19 0 -8 -3 -9 -8 -3
-11 15 -32 17 -32 3 0 -18 12 -33 33 -41 15 -5 17 0 17 38 0 41 -2 45 -25 45
-14 0 -25 -4 -25 -9z"/>
<path d="M5619 5733 c-1 -5 -1 -12 0 -17 1 -5 -3 -12 -9 -16 -8 -5 -7 -12 5
-24 20 -20 35 -21 35 -1 0 8 -4 15 -10 15 -5 0 -10 5 -10 11 0 5 4 8 9 4 5 -3
13 0 17 6 3 6 0 15 -7 20 -17 11 -29 11 -30 2z"/>
<path d="M4334 3378 c-17 -8 -21 -20 -23 -60 -2 -77 -46 -101 -92 -52 -18 19
-24 36 -23 69 1 32 -3 42 -13 38 -7 -3 -13 -12 -13 -19 0 -8 -12 -20 -26 -26
-23 -11 -24 -13 -7 -19 40 -15 53 -139 16 -153 -23 -9 -64 15 -84 49 -22 38
-23 64 -2 87 14 16 15 18 0 18 -23 0 -47 -39 -47 -77 0 -54 -34 -36 -43 22 -4
27 -4 27 -6 -7 0 -24 -9 -44 -22 -57 l-22 -20 37 10 c35 10 68 2 39 -8 -7 -3
-13 -12 -13 -21 0 -12 3 -13 12 -4 21 21 49 13 84 -22 43 -43 43 -69 -1 -113
-39 -39 -64 -39 -102 3 -25 27 -29 58 -13 100 9 23 8 25 -4 15 -7 -6 -16 -24
-19 -39 -13 -69 28 -132 86 -132 37 0 47 -12 47 -56 0 -14 9 -44 20 -66 11
-23 20 -43 20 -46 0 -12 -49 7 -67 27 -40 42 -22 -6 23 -62 17 -21 31 -27 60
-27 52 0 114 18 111 32 -3 15 121 101 137 95 7 -3 16 -19 19 -37 4 -17 11 -29
17 -25 5 3 7 0 4 -9 -12 -31 42 -50 164 -57 69 -4 118 -12 120 -18 6 -17 63
-13 101 7 56 28 48 38 -24 32 -49 -4 -69 -2 -79 9 -12 11 -23 12 -61 2 -27 -7
-74 -9 -113 -5 -90 8 -96 10 -80 28 7 8 17 11 22 8 5 -3 6 0 2 7 -5 7 -14 10
-22 7 -8 -3 -14 -1 -14 5 0 6 -7 9 -15 5 -17 -6 -16 12 2 32 9 9 10 19 3 32
-14 26 -13 30 6 23 8 -3 13 -12 10 -19 -3 -8 -2 -14 2 -14 4 0 13 -13 20 -29
16 -36 33 -40 167 -42 150 -2 152 -1 187 30 41 37 32 49 -16 20 -24 -14 -40
-18 -49 -12 -7 6 -53 7 -112 3 -142 -9 -170 8 -167 103 2 34 10 47 63 97 76
73 116 93 166 85 76 -12 81 -15 91 -45 6 -16 22 -45 35 -62 14 -18 27 -42 31
-53 3 -11 4 -5 2 13 -1 17 1 32 6 32 4 0 8 7 8 15 0 8 4 15 9 15 6 0 9 9 8 20
-1 13 -5 16 -11 10 -19 -19 -34 -10 -46 24 -12 37 -11 114 2 122 13 9 9 24 -7
24 -8 0 -15 -7 -15 -17 0 -9 -14 -29 -32 -45 -28 -24 -34 -26 -46 -14 -8 8
-17 36 -19 62 -3 27 -10 55 -16 62 -17 22 -29 13 -25 -20 9 -56 -41 -132 -73
-112 -19 11 -38 70 -34 103 l4 31 -24 -17 c-19 -14 -24 -25 -20 -47 2 -16 8
-32 12 -35 16 -11 8 -78 -12 -104 -37 -49 -76 -29 -90 46 -5 25 -2 42 10 61
14 20 14 26 4 26 -8 0 -24 -18 -36 -40 -12 -22 -17 -40 -12 -40 5 0 9 -4 9
-10 0 -5 -6 -10 -14 -10 -8 0 -17 -8 -20 -17 -2 -10 -2 -2 1 18 4 28 1 38 -13
43 -10 4 -21 1 -25 -5 -4 -6 -12 -8 -18 -5 -6 4 -11 3 -11 -2 0 -13 -32 -10
-43 3 -5 6 -7 0 -4 -13 3 -12 1 -19 -4 -16 -16 9 -39 -16 -39 -42 0 -15 -6
-24 -16 -24 -14 0 -15 -2 -3 -17 15 -17 13 -50 -2 -70 -7 -7 -3 -18 12 -32 14
-13 20 -27 16 -40 -3 -11 0 -22 7 -24 18 -7 -62 -36 -86 -32 -30 6 -38 17 -48
61 -7 32 -4 48 19 99 15 33 31 73 35 89 11 46 35 74 81 96 36 18 49 19 86 11
40 -10 46 -8 62 11 17 20 17 23 2 34 -8 6 -14 16 -13 20 2 5 -1 10 -6 11 -25
4 -42 68 -25 90 16 18 9 23 -17 11z m94 -304 c7 -14 8 -23 2 -19 -5 3 -10 0
-10 -8 0 -10 -7 -13 -20 -10 -26 7 -35 22 -21 36 8 8 11 8 11 -1 0 -7 5 -12
11 -12 6 0 9 9 6 20 -7 29 8 25 21 -6z m32 -65 c0 -6 -4 -7 -10 -4 -5 3 -10
11 -10 16 0 6 5 7 10 4 6 -3 10 -11 10 -16z m0 -34 c-7 -9 -15 -13 -17 -11 -7
7 7 26 19 26 6 0 6 -6 -2 -15z m-10 -50 c0 -8 -2 -15 -4 -15 -2 0 -6 7 -10 15
-3 8 -1 15 4 15 6 0 10 -7 10 -15z m-180 -91 c0 -3 -6 -12 -14 -19 -17 -18
-29 -8 -13 11 12 14 27 18 27 8z m-44 -36 c5 -7 3 -8 -5 -4 -7 5 -21 0 -31 -9
-19 -17 -50 -15 -50 4 0 19 75 27 86 9z"/>
<path d="M4727 3323 c-4 -3 -7 -11 -7 -17 0 -6 5 -5 12 2 6 6 9 14 7 17 -3 3
-9 2 -12 -2z"/>
<path d="M4513 3301 c-9 -14 -9 -22 -2 -27 15 -9 21 1 17 26 -3 21 -3 21 -15
1z"/>
<path d="M2774 3112 c-6 -4 -14 -16 -18 -27 -6 -16 -9 -17 -16 -5 -7 11 -15 7
-42 -21 -18 -19 -40 -38 -50 -41 -9 -4 -22 -22 -28 -40 -13 -34 -94 -98 -125
-98 -8 0 -15 -4 -15 -9 0 -16 -64 -19 -92 -5 -15 8 -30 23 -33 35 -5 14 -12
18 -23 14 -10 -4 -30 -9 -47 -11 -116 -14 -184 -44 -192 -86 -3 -15 -10 -28
-15 -28 -5 0 -8 -11 -6 -24 1 -13 -3 -30 -10 -39 -10 -12 -11 -21 -3 -36 8
-14 8 -22 1 -26 -7 -4 -7 -11 -2 -18 5 -7 8 -27 6 -45 -1 -18 3 -35 8 -38 5
-3 2 -14 -8 -25 -12 -13 -13 -19 -4 -19 12 0 11 -14 -5 -54 -7 -16 -5 -17 14
-11 20 6 22 5 12 -13 -14 -27 -14 -45 1 -36 8 5 9 0 4 -17 -14 -45 -12 -54 10
-53 21 0 21 -1 7 -35 -8 -20 -19 -41 -23 -46 -11 -13 -44 -194 -37 -201 2 -3
14 -6 26 -7 40 -3 51 -88 30 -231 -14 -94 -8 -126 26 -126 22 0 25 -5 27 -37
0 -21 0 -47 0 -58 -2 -16 5 -20 33 -22 29 -1 35 2 35 18 0 10 5 19 10 19 7 0
8 13 4 37 -6 33 -5 36 14 31 12 -3 23 -1 26 6 2 6 5 2 6 -9 1 -18 1 -19 11 -2
13 23 29 22 29 -3 0 -19 1 -19 20 -3 11 10 20 23 20 31 0 7 7 27 16 43 15 29
16 30 39 15 13 -9 31 -13 39 -10 18 7 38 -28 29 -53 -6 -17 27 17 63 62 15 20
15 20 10 -3 -6 -30 2 -52 20 -52 8 0 24 -6 35 -12 17 -11 23 -10 26 0 3 7 11
19 19 27 21 21 44 92 44 135 0 48 25 62 27 16 2 -26 0 -28 -7 -11 -7 16 -9 17
-9 3 -1 -9 4 -20 9 -23 6 -3 10 -30 11 -58 1 -39 3 -46 8 -27 7 23 8 23 13 5
4 -11 9 -37 13 -57 3 -21 10 -40 15 -43 10 -6 13 26 10 101 -1 24 4 45 11 50
7 4 10 3 6 -3 -4 -6 0 -19 8 -29 13 -17 14 -15 15 26 1 42 2 44 15 26 15 -20
15 -20 15 0 0 10 -7 28 -15 38 -8 11 -15 24 -15 30 0 14 47 -50 71 -96 22 -43
34 -48 42 -17 3 12 10 18 16 14 6 -3 14 1 17 9 7 18 54 22 54 5 0 -5 5 -7 11
-4 6 4 13 -2 15 -12 4 -14 13 -19 35 -17 19 1 29 -3 29 -12 0 -8 4 -14 8 -14
5 0 14 -10 21 -22 10 -20 11 -20 7 -3 -2 11 -7 28 -11 38 -7 17 -6 17 29 0 33
-16 36 -21 31 -48 -3 -19 0 -38 10 -50 12 -17 14 -18 15 -3 0 9 -6 19 -12 21
-10 4 -10 7 0 15 15 10 12 22 -40 130 -22 46 -37 86 -33 90 4 4 10 1 12 -6 3
-7 13 -21 23 -30 10 -9 27 -34 37 -54 11 -21 23 -35 27 -31 3 3 -5 26 -19 50
-14 23 -22 43 -17 43 5 0 15 -11 22 -25 11 -21 30 -34 30 -22 0 5 -58 127 -70
149 -14 26 -12 35 8 34 30 -2 47 -19 76 -77 23 -46 32 -56 48 -51 16 4 19 11
14 32 -6 34 -53 135 -80 174 -11 16 -16 27 -10 24 15 -10 15 108 0 152 -12 36
-12 41 0 36 20 -7 9 36 -22 90 -13 22 -21 44 -17 48 4 4 1 11 -7 16 -10 6 -11
10 -3 10 18 0 5 28 -15 33 -15 4 -15 5 1 6 14 1 12 7 -14 32 -23 22 -30 37
-26 55 3 16 -1 28 -12 34 -9 5 -11 10 -4 10 6 0 18 14 27 30 14 29 14 30 -7
31 -20 1 -19 2 5 13 l27 12 -30 13 c-28 12 -29 14 -12 28 17 13 17 14 -4 8
-25 -7 -30 4 -10 24 10 10 7 11 -16 6 -23 -6 -26 -4 -21 9 4 11 -1 25 -15 37
-11 11 -21 29 -21 39 0 11 -5 20 -11 20 -7 0 -9 9 -5 24 5 20 3 23 -14 19 -23
-6 -26 7 -7 26 10 10 9 12 -5 9 -11 -2 -35 16 -63 47 -44 49 -46 50 -61 30 -9
-11 -14 -13 -12 -5 11 35 -62 67 -98 42z m30 -282 c44 -19 55 -28 50 -42 -3
-11 0 -18 8 -18 13 0 68 -78 68 -98 0 -16 -127 -13 -141 4 -6 8 -17 14 -23 14
-6 0 -24 7 -40 15 -24 13 -31 13 -38 3 -4 -8 -8 7 -8 37 l-1 50 -13 -30 -13
-30 -8 30 c-3 17 -8 36 -11 43 -2 7 1 10 6 7 6 -3 10 -2 10 4 0 6 7 8 15 5 9
-4 15 -1 15 7 0 7 10 23 22 36 20 21 22 22 34 5 6 -9 37 -28 68 -42z m-598 23
c-3 -3 -16 -1 -28 6 l-23 12 23 -5 c12 -2 22 1 23 7 0 8 3 7 6 -1 3 -7 2 -16
-1 -19z m461 -5 c-3 -8 -6 -5 -6 6 -1 11 2 17 5 13 3 -3 4 -12 1 -19z m-179
-150 c7 -7 12 -22 12 -35 0 -14 6 -23 15 -23 8 0 15 -5 15 -11 0 -7 -10 -9
-25 -6 -24 4 -24 3 -10 -12 11 -13 12 -20 3 -29 -9 -9 -3 -19 25 -45 28 -24
39 -44 46 -80 9 -51 4 -56 -34 -31 -21 14 -26 14 -55 -1 -18 -9 -34 -25 -37
-35 -6 -24 -30 -33 -37 -14 -6 15 34 64 53 64 6 0 11 5 11 10 0 6 3 9 8 8 4
-2 7 -1 7 2 0 3 8 16 18 30 22 32 22 48 -1 27 -15 -13 -21 -14 -31 -4 -11 9
-14 9 -18 0 -3 -7 -11 -13 -19 -13 -8 0 -14 -4 -14 -10 0 -5 -11 -10 -25 -10
-14 0 -25 -4 -25 -10 0 -5 -7 -10 -16 -10 -8 0 -13 4 -10 9 4 5 2 20 -3 34
-22 57 36 176 94 195 41 14 39 14 53 0z m282 -105 c0 -5 23 -8 50 -9 39 0 56
-6 73 -23 19 -18 20 -23 7 -31 -10 -6 -21 -3 -36 11 -28 26 -59 18 -83 -22
-10 -16 -21 -26 -24 -22 -11 10 -8 103 3 103 6 0 10 -3 10 -7z m50 -87 c0 -3
-4 -8 -10 -11 -5 -3 -10 -1 -10 4 0 6 5 11 10 11 6 0 10 -2 10 -4z m212 -33
c21 -20 38 -45 38 -55 0 -10 4 -18 9 -18 5 0 12 -13 16 -30 3 -16 15 -41 26
-55 18 -21 18 -25 4 -25 -9 0 -30 7 -47 16 -23 12 -44 14 -84 9 -56 -7 -87 1
-63 15 9 6 4 16 -20 39 -18 17 -30 34 -27 39 3 5 -8 6 -24 4 -15 -2 -36 1 -47
7 -15 9 -14 10 14 11 35 0 71 39 58 60 -5 8 5 11 33 9 23 -2 44 0 48 4 14 13
28 7 66 -30z m-271 -95 c24 -17 46 -35 47 -40 2 -4 8 -8 14 -8 5 0 22 -9 38
-20 15 -11 30 -17 34 -13 3 3 6 -3 6 -15 0 -21 -61 -72 -87 -72 -9 0 -10 -7
-3 -24 7 -18 5 -28 -6 -37 -13 -11 -14 -9 -9 14 5 17 2 33 -6 43 -14 17 -19
94 -6 94 13 0 7 33 -10 52 -20 23 -37 22 -90 -2 -38 -17 -43 -23 -43 -53 0
-20 8 -42 20 -55 13 -14 16 -22 8 -22 -10 0 -10 -2 0 -8 16 -11 -21 -51 -48
-53 -87 -6 -99 2 -61 38 10 10 30 43 44 73 13 31 32 61 40 68 8 7 20 26 27 42
16 38 36 38 91 -2z m-271 2 c0 -5 -5 -10 -11 -10 -5 0 -7 5 -4 10 3 6 8 10 11
10 2 0 4 -4 4 -10z m71 -51 c-5 -13 -26 -42 -46 -64 -39 -43 -88 -132 -79
-146 7 -12 -37 -53 -45 -42 -11 17 -35 21 -51 8 -23 -19 -60 -28 -60 -15 0 6
5 8 10 5 15 -9 12 17 -4 51 -22 43 5 130 52 167 46 35 99 46 116 22 17 -23 66
-13 90 20 23 30 30 27 17 -6z m317 -215 c-12 -21 -21 -49 -19 -62 6 -48 -45
-95 -115 -107 -37 -6 -44 -3 -74 27 -18 18 -51 38 -72 43 -42 11 -54 28 -24
33 10 2 27 -5 38 -15 16 -14 22 -15 26 -5 3 9 8 7 16 -9 31 -62 185 -31 191
39 1 9 6 26 12 37 6 11 13 29 14 40 2 11 9 23 14 27 19 14 16 -10 -7 -48z
m-228 6 c6 -11 7 -20 2 -20 -5 0 -17 9 -27 20 -16 18 -16 20 -2 20 9 0 21 -9
27 -20z m163 -43 c-40 -41 -69 -51 -104 -33 -16 8 -27 10 -24 5 4 -5 2 -9 -3
-9 -14 0 -20 22 -13 43 6 17 8 17 20 3 7 -9 18 -13 24 -9 6 3 7 1 3 -5 -4 -7
-4 -12 1 -13 4 0 16 -2 25 -4 22 -4 57 30 54 52 -4 25 17 36 32 16 10 -14 8
-21 -15 -46z m-160 -212 c-3 -9 -8 -14 -10 -11 -3 3 -2 9 2 15 9 16 15 13 8
-4z m-9 -149 c-3 -9 -10 -13 -16 -10 -5 3 -4 12 3 20 15 18 22 13 13 -10z"/>
<path d="M2913 2465 c-3 -9 -3 -19 1 -22 3 -4 6 1 6 10 0 8 6 18 13 20 9 4 9
6 -1 6 -7 1 -15 -6 -19 -14z"/>
<path d="M2470 2264 c0 -8 5 -12 10 -9 6 3 10 10 10 16 0 5 -4 9 -10 9 -5 0
-10 -7 -10 -16z"/>
<path d="M4670 3025 c0 -8 5 -15 10 -15 6 0 10 7 10 15 0 8 -4 15 -10 15 -5 0
-10 -7 -10 -15z"/>
<path d="M4601 3004 c0 -11 3 -14 6 -6 3 7 2 16 -1 19 -3 4 -6 -2 -5 -13z"/>
<path d="M4010 2923 c0 -15 18 -35 23 -27 3 5 -1 15 -9 22 -8 7 -14 9 -14 5z"/>
<path d="M4851 2904 c0 -11 3 -14 6 -6 3 7 2 16 -1 19 -3 4 -6 -2 -5 -13z"/>
<path d="M4713 2550 c-13 -5 -32 -24 -43 -42 -24 -40 -27 -108 -5 -108 8 0 15
-5 15 -11 0 -5 -4 -7 -10 -4 -5 3 -7 0 -4 -9 3 -8 -7 -33 -21 -55 -16 -24 -25
-49 -22 -60 3 -11 0 -22 -6 -24 -21 -7 16 -81 46 -91 29 -11 82 2 82 19 1 19
37 65 51 65 24 0 15 15 -17 29 -16 7 -28 16 -25 19 3 2 12 -1 21 -8 8 -7 21
-10 29 -7 10 4 13 -1 11 -19 -1 -13 2 -27 6 -30 5 -3 9 -10 9 -15 0 -5 -10 -3
-22 5 -21 13 -24 13 -41 -10 -10 -13 -13 -24 -7 -24 6 0 13 7 16 15 7 18 31
20 36 4 3 -9 12 -9 32 -3 l27 9 -21 28 c-21 26 -21 30 -7 65 8 20 18 56 22 79
6 39 5 41 -14 36 -13 -3 -21 -13 -21 -28 0 -31 -20 -85 -32 -85 -5 0 -6 -5 -2
-12 5 -7 3 -8 -5 -4 -7 5 -10 11 -7 14 3 3 -6 20 -20 39 -17 23 -23 40 -18 51
4 9 6 21 5 25 -1 5 3 6 9 2 6 -4 17 10 26 30 20 49 10 103 -23 116 -13 5 -25
9 -26 8 -1 0 -12 -4 -24 -9z m66 -33 c0 -9 -2 -8 -6 1 -2 6 -10 9 -15 6 -7 -4
-8 -2 -4 5 9 13 26 5 25 -12z m-88 -10 c-10 -9 -11 -8 -5 6 3 10 9 15 12 12 3
-3 0 -11 -7 -18z m57 1 c20 -20 14 -65 -14 -97 -14 -17 -31 -31 -37 -31 -9 0
-9 2 0 8 8 5 9 13 3 22 -15 24 -12 72 7 92 19 21 25 22 41 6z m-71 -58 c-5
-30 -12 -32 -15 -5 -1 14 3 25 8 25 5 0 9 -9 7 -20z m63 -104 c0 -2 -7 -6 -15
-10 -8 -3 -15 -1 -15 4 0 6 7 10 15 10 8 0 15 -2 15 -4z m-35 -26 c4 -7 13 -7
24 0 18 9 41 -4 41 -24 0 -5 -6 -2 -12 7 -8 10 -18 14 -26 8 -10 -6 -7 -15 14
-41 21 -25 25 -36 17 -49 -14 -22 -56 -36 -79 -26 -11 5 -22 8 -25 7 -3 0 -2
23 2 51 3 29 4 56 1 61 -3 5 0 6 6 2 7 -4 12 -2 12 3 0 14 17 14 25 1z m-61
-56 c3 -8 2 -12 -4 -9 -6 3 -10 10 -10 16 0 14 7 11 14 -7z m76 -93 c0 -6 -4
-12 -8 -15 -5 -3 -9 1 -9 9 0 8 4 15 9 15 4 0 8 -4 8 -9z"/>
<path d="M4530 2491 c-7 -15 -6 -23 6 -35 8 -9 20 -16 25 -16 18 0 9 -27 -13
-38 -15 -7 -18 -11 -7 -11 37 -2 55 57 19 66 -27 7 -25 31 3 43 l22 9 -22 0
c-12 1 -27 -8 -33 -18z"/>
<path d="M4436 2468 c-20 -28 -20 -58 -2 -83 33 -45 94 33 66 84 -14 27 -45
27 -64 -1z m52 -26 c3 -32 -11 -62 -29 -62 -18 0 -29 49 -17 75 16 36 42 28
46 -13z"/>
<path d="M4337 2464 c-4 -4 -7 -31 -7 -61 0 -58 9 -65 48 -37 19 13 22 24 20
57 -3 37 -6 42 -28 45 -14 2 -29 0 -33 -4z m51 -40 c3 -30 -18 -64 -39 -64 -5
0 -9 23 -9 51 0 47 2 50 23 47 17 -2 23 -11 25 -34z"/>
<path d="M3210 2446 c0 -2 7 -7 16 -10 8 -3 12 -2 9 4 -6 10 -25 14 -25 6z"/>
<path d="M4254 2435 c-3 -8 -4 -20 -1 -27 4 -8 6 -6 6 5 1 28 21 20 21 -9 0
-21 -4 -25 -20 -21 -13 3 -20 0 -20 -8 0 -7 -2 -22 -5 -32 -3 -11 -1 -9 6 5
13 25 49 30 49 7 0 -8 5 -15 11 -15 6 0 9 6 6 14 -3 8 -11 33 -17 55 -11 42
-26 53 -36 26z"/>
<path d="M4167 2433 c-15 -14 -6 -52 13 -58 27 -8 25 -33 -2 -45 -23 -10 -23
-10 2 -7 34 3 41 50 11 67 -27 14 -27 28 2 40 21 8 21 9 1 9 -11 1 -24 -2 -27
-6z"/>
<path d="M4092 2418 c-18 -18 -14 -46 8 -53 27 -9 27 -45 -1 -45 -11 0 -17 -5
-14 -10 4 -7 13 -6 26 1 33 17 34 39 4 63 l-28 23 24 16 c16 11 18 17 8 17 -8
0 -20 -5 -27 -12z"/>
<path d="M3997 2350 c-8 -33 -11 -60 -6 -60 5 0 9 7 9 15 0 24 31 31 46 10 17
-23 17 -12 0 44 -7 25 -18 47 -23 48 -6 2 -17 -23 -26 -57z m36 -2 c-2 -5 -8
-8 -14 -8 -11 0 -12 33 -2 44 8 8 23 -25 16 -36z"/>
<path d="M4553 2343 c-19 -7 -16 -40 5 -52 16 -10 16 -12 -2 -26 -11 -8 -17
-17 -14 -20 7 -7 38 23 38 36 0 5 -7 12 -15 15 -18 7 -20 31 -2 37 6 2 10 7 7
9 -3 3 -11 3 -17 1z"/>
<path d="M3726 2309 c-41 -36 -95 -139 -103 -196 -11 -82 53 -154 122 -137 32
8 79 62 96 111 21 58 18 193 -4 226 -24 38 -66 36 -111 -4z m99 -16 c-2 -16 1
-30 8 -35 11 -7 -13 -12 -50 -11 -7 1 -13 -3 -13 -9 0 -5 -4 -7 -9 -3 -5 3
-12 1 -16 -5 -10 -17 -32 -11 -38 10 -3 10 1 27 9 37 13 17 14 16 8 -8 -3 -15
-1 -30 5 -33 7 -5 11 4 11 23 0 32 20 55 21 24 0 -14 2 -14 9 5 5 12 14 22 21
22 6 0 9 -7 6 -15 -4 -8 -2 -17 3 -20 6 -4 10 2 10 13 0 17 8 32 17 32 2 0 1
-12 -2 -27z m2 -65 c-2 -7 0 -23 4 -35 6 -17 5 -23 -6 -23 -10 0 -15 11 -15
35 0 19 5 35 11 35 6 0 9 -6 6 -12z m-25 -33 c2 -20 0 -35 -7 -36 -5 0 -18 -2
-27 -4 -12 -2 -18 3 -18 15 0 10 -5 22 -11 25 -6 4 -10 1 -8 -6 1 -8 0 -23 -1
-34 -1 -14 -5 -10 -11 14 -12 39 -11 41 30 44 17 1 31 5 31 10 0 4 4 7 9 7 5
0 11 -16 13 -35z m-100 -50 c13 -29 22 -30 62 -10 15 8 32 15 37 15 17 0 9
-32 -17 -62 -16 -19 -24 -40 -22 -56 2 -14 -3 -27 -10 -29 -7 -3 -10 1 -6 11
3 9 2 16 -4 16 -5 0 -12 -9 -15 -20 -3 -11 -11 -20 -18 -20 -10 0 -10 3 -1 12
18 18 14 34 -12 46 -18 8 -24 20 -29 59 -3 26 -3 51 0 55 9 15 24 8 35 -17z"/>
<path d="M4464 2305 c-13 -21 -15 -31 -6 -50 22 -48 67 -15 60 43 -4 36 -32
40 -54 7z m44 -14 c4 -22 -13 -51 -29 -51 -14 0 -20 39 -9 60 14 26 34 21 38
-9z"/>
<path d="M4425 2282 c-8 -48 -13 -48 -26 0 -8 32 -9 32 -4 -6 6 -59 22 -66 35
-17 6 24 9 48 7 54 -2 7 -7 -7 -12 -31z"/>
<path d="M4306 2291 c-17 -6 -17 -8 -3 -14 8 -3 21 1 27 9 13 15 6 17 -24 5z"/>
<path d="M4363 2255 c0 -27 2 -38 4 -22 2 15 2 37 0 50 -2 12 -4 0 -4 -28z"/>
<path d="M4273 2240 c0 -30 2 -43 4 -27 2 15 2 39 0 55 -2 15 -4 2 -4 -28z"/>
<path d="M4207 2273 c-3 -4 -5 -28 -4 -53 0 -25 2 -35 4 -22 5 26 30 30 36 5
2 -10 3 2 3 27 -1 33 -5 46 -18 48 -9 2 -18 -1 -21 -5z m33 -17 c0 -16 -18
-31 -27 -22 -8 8 5 36 17 36 5 0 10 -6 10 -14z"/>
<path d="M4150 2260 c-9 -6 -10 -10 -3 -10 7 0 14 -19 16 -42 l4 -43 1 47 c1
26 7 49 15 51 8 4 7 6 -3 6 -8 0 -22 -4 -30 -9z"/>
<path d="M4110 2220 c-4 -35 -9 -45 -22 -44 -10 1 -18 -2 -18 -7 0 -15 40 -10
46 5 3 8 4 31 2 52 l-4 39 -4 -45z"/>
<path d="M4060 2220 c0 -16 2 -30 4 -30 2 0 6 14 8 30 3 17 1 30 -4 30 -4 0
-8 -13 -8 -30z"/>
<path d="M3990 2233 c0 -12 39 -83 46 -83 2 0 4 10 4 22 0 12 -3 18 -7 14 -4
-4 -15 8 -25 26 -9 18 -17 28 -18 21z"/>
<path d="M4312 2220 c0 -14 2 -19 5 -12 2 6 2 18 0 25 -3 6 -5 1 -5 -13z"/>
<path d="M4554 2187 c-2 -7 2 -27 11 -43 13 -26 15 -27 15 -6 0 12 -4 22 -10
22 -14 0 -12 27 3 33 9 4 9 6 -1 6 -7 1 -15 -5 -18 -12z"/>
<path d="M4496 2182 c-2 -4 4 -8 14 -8 10 0 16 4 14 8 -3 4 -9 8 -14 8 -5 0
-11 -4 -14 -8z"/>
<path d="M3981 2154 c0 -11 3 -14 6 -6 3 7 2 16 -1 19 -3 4 -6 -2 -5 -13z"/>
<path d="M4427 2164 c-10 -10 -9 -72 1 -78 4 -2 14 0 22 6 12 8 12 9 -2 4 -15
-4 -18 1 -18 29 0 34 21 49 33 25 3 -6 4 -5 3 2 -3 15 -28 22 -39 12z"/>
<path d="M4386 2136 c5 -21 4 -27 -5 -22 -6 4 -11 2 -11 -3 0 -6 6 -11 14 -11
8 0 17 -6 20 -12 3 -7 3 1 -1 17 -3 17 -10 37 -14 45 -6 10 -7 5 -3 -14z"/>
<path d="M4320 2103 c0 -52 11 -54 12 -2 1 19 6 37 12 41 7 5 4 8 -6 8 -15 0
-18 -9 -18 -47z"/>
<path d="M4275 2130 c-3 -6 1 -7 9 -4 18 7 21 14 7 14 -6 0 -13 -4 -16 -10z"/>
<path d="M4241 2114 c0 -11 3 -14 6 -6 3 7 2 16 -1 19 -3 4 -6 -2 -5 -13z"/>
<path d="M4520 2121 c0 -8 -7 -11 -15 -7 -8 3 -15 1 -15 -4 0 -6 6 -10 14 -10
17 0 31 18 22 27 -3 4 -6 1 -6 -6z"/>
<path d="M4166 2095 c8 -37 14 -45 14 -19 0 10 -5 26 -10 34 -8 11 -9 7 -4
-15z"/>
<path d="M4221 2085 c24 -40 28 -43 26 -16 0 11 -4 18 -8 15 -4 -2 -10 5 -14
16 -3 11 -10 20 -15 20 -5 0 0 -16 11 -35z"/>
<path d="M4261 2094 c-1 -26 24 -51 34 -34 4 6 1 9 -6 8 -7 -2 -16 8 -20 22
-6 22 -7 23 -8 4z"/>
<path d="M4055 2090 c-3 -5 -1 -10 4 -10 6 0 11 5 11 10 0 6 -2 10 -4 10 -3 0
-8 -4 -11 -10z"/>
<path d="M3990 2086 c0 -2 7 -6 15 -10 8 -3 15 -1 15 4 0 6 -7 10 -15 10 -8 0
-15 -2 -15 -4z"/>
<path d="M4202 2065 c0 -16 2 -22 5 -12 2 9 2 23 0 30 -3 6 -5 -1 -5 -18z"/>
<path d="M4146 2055 c-9 -26 -7 -32 5 -12 6 10 9 21 6 23 -2 3 -7 -2 -11 -11z"/>
<path d="M4000 2050 c-13 -8 -12 -10 3 -10 9 0 17 5 17 10 0 12 -1 12 -20 0z"/>
<path d="M4058 2053 c-10 -2 -18 -12 -18 -21 0 -15 2 -15 10 -2 9 13 11 13 20
0 8 -12 10 -11 10 8 0 12 -1 21 -2 21 -2 -1 -11 -3 -20 -6z"/>
<path d="M4100 2030 c0 -6 7 -10 15 -10 8 0 15 2 15 4 0 2 -7 6 -15 10 -8 3
-15 1 -15 -4z"/>
<path d="M4815 2031 c-3 -5 -1 -12 5 -16 5 -3 10 1 10 9 0 18 -6 21 -15 7z"/>
<path d="M4776 2021 c-4 -6 -1 -11 6 -11 8 0 6 -5 -4 -11 -10 -5 -18 -17 -18
-25 0 -25 35 -11 38 15 4 27 -12 49 -22 32z"/>
<path d="M4000 2010 c-9 -6 -10 -10 -3 -10 6 0 15 5 18 10 8 12 4 12 -15 0z"/>
<path d="M4730 1978 c0 -36 4 -35 14 5 4 16 2 27 -4 27 -5 0 -10 -14 -10 -32z"/>
<path d="M4680 1989 c0 -5 6 -7 13 -3 6 4 4 -2 -5 -13 -23 -25 -23 -47 -2 -39
9 3 18 6 20 6 2 0 4 14 4 30 0 20 -5 30 -15 30 -8 0 -15 -5 -15 -11z"/>
<path d="M3810 1980 c0 -5 5 -10 11 -10 5 0 7 5 4 10 -3 6 -8 10 -11 10 -2 0
-4 -4 -4 -10z"/>
<path d="M4627 1979 c-19 -11 -25 -89 -7 -89 6 0 10 6 10 14 0 8 7 16 15 20
15 6 21 51 7 60 -4 2 -15 0 -25 -5z m23 -23 c0 -8 -4 -18 -10 -21 -5 -3 -10 3
-10 14 0 12 5 21 10 21 6 0 10 -6 10 -14z"/>
<path d="M4553 1954 c-3 -9 0 -20 8 -25 12 -8 12 -11 -1 -20 -13 -9 -13 -10 0
-6 9 2 15 16 15 35 1 34 -12 43 -22 16z"/>
<path d="M3240 1950 c0 -5 4 -18 10 -28 5 -9 14 -29 20 -44 5 -16 15 -28 21
-28 8 0 8 4 2 13 -6 6 -16 29 -22 49 -12 37 -31 60 -31 38z"/>
<path d="M4508 1949 c-10 -6 -18 -21 -18 -34 0 -35 37 -34 46 1 8 31 -5 46
-28 33z m15 -34 c-7 -21 -13 -19 -13 6 0 11 4 18 10 14 5 -3 7 -12 3 -20z"/>
<path d="M4362 1933 c-4 -10 -6 -34 -3 -53 6 -35 6 -35 17 18 10 51 3 69 -14
35z"/>
<path d="M4432 1928 c-17 -17 -15 -58 3 -58 18 0 20 17 3 23 -10 3 -10 8 1 21
16 19 10 31 -7 14z"/>
<path d="M4466 1917 c-5 -15 -6 -31 -2 -34 11 -11 18 5 14 34 l-4 28 -8 -28z"/>
<path d="M4390 1889 c0 -17 4 -28 10 -24 6 3 10 17 10 31 0 13 -4 24 -10 24
-5 0 -10 -14 -10 -31z"/>
<path d="M4307 1903 c-10 -9 -9 -51 1 -57 4 -2 14 -1 22 5 13 7 13 9 0 9 -12
1 -11 4 4 15 10 7 15 18 11 24 -7 12 -28 14 -38 4z"/>
<path d="M4131 1858 c-1 -50 14 -63 39 -33 15 18 3 58 -15 51 -8 -3 -16 3 -18
12 -3 9 -5 -4 -6 -30z m29 -13 c0 -8 -4 -15 -10 -15 -5 0 -10 7 -10 15 0 8 5
15 10 15 6 0 10 -7 10 -15z"/>
<path d="M4253 1893 c-15 -6 -18 -63 -3 -63 6 0 11 12 11 28 2 23 2 24 6 5 6
-33 23 -28 23 7 0 29 -9 35 -37 23z"/>
<path d="M4197 1884 c-13 -14 -7 -64 7 -64 22 0 29 18 9 23 -17 4 -17 5 0 6
12 1 17 7 15 18 -3 18 -20 27 -31 17z"/>
<path d="M4739 1863 c-13 -16 -12 -17 4 -4 16 13 21 21 13 21 -2 0 -10 -8 -17
-17z"/>
<path d="M4730 1821 c-73 -75 -89 -172 -39 -236 16 -20 29 -25 64 -25 124 0
211 207 123 290 -14 13 -36 20 -62 20 -34 0 -46 -6 -86 -49z m86 6 c-4 -19 -2
-23 22 -22 25 0 26 -3 28 -52 1 -29 -2 -55 -7 -58 -5 -3 -3 -15 4 -26 12 -21
14 -19 -60 -80 -9 -7 -13 -6 -13 5 0 8 14 19 32 25 17 6 29 13 26 16 -3 3 -18
0 -34 -6 -72 -29 -118 -14 -95 30 6 10 6 23 1 31 -5 8 -5 21 0 29 4 9 5 30 3
48 -5 29 -2 33 36 51 23 11 41 16 41 11 0 -5 -16 -15 -35 -23 -19 -8 -35 -22
-35 -30 0 -20 16 -20 70 -1 50 18 50 18 50 6 0 -5 -26 -18 -57 -28 -44 -15
-59 -25 -61 -41 -4 -26 2 -27 58 -7 23 8 47 15 53 15 20 0 -7 -16 -55 -34 -69
-25 -69 -39 -1 -15 66 22 78 32 70 53 -5 13 -13 13 -62 -4 -36 -12 -55 -15
-53 -8 2 6 26 19 53 28 46 15 76 42 63 55 -5 6 -65 -7 -104 -22 -8 -3 -14 -1
-14 5 0 6 14 15 31 21 17 6 33 20 36 31 3 11 8 20 10 20 3 0 3 -10 -1 -23z
m-39 -239 c-3 -8 -6 -5 -6 6 -1 11 2 17 5 13 3 -3 4 -12 1 -19z"/>
<path d="M4775 1650 c-33 -10 -51 -19 -40 -19 11 0 41 6 67 13 28 9 49 11 52
5 2 -5 3 -4 2 3 -3 18 -15 17 -81 -2z"/>
<path d="M4031 1852 c-6 -2 -10 -18 -10 -35 2 -31 2 -31 6 -4 2 15 8 27 13 27
5 0 11 -12 13 -27 l4 -28 2 28 c1 33 18 36 24 5 3 -17 5 -14 6 9 1 29 -2 33
-23 31 -13 -1 -29 -4 -35 -6z"/>
<path d="M3966 1834 c-22 -21 -17 -49 9 -49 13 0 21 8 23 24 5 33 -11 46 -32
25z m24 -18 c0 -8 -4 -18 -10 -21 -5 -3 -10 3 -10 14 0 12 5 21 10 21 6 0 10
-6 10 -14z"/>
<path d="M3923 1833 c-19 -7 -17 -63 2 -63 8 0 15 5 15 10 0 6 -4 10 -10 10
-16 0 -12 22 8 36 17 13 9 17 -15 7z"/>
<path d="M4388 1783 c7 -3 16 -2 19 1 4 3 -2 6 -13 5 -11 0 -14 -3 -6 -6z"/>
<path d="M4335 1770 c-3 -6 1 -7 9 -4 18 7 21 14 7 14 -6 0 -13 -4 -16 -10z"/>
<path d="M4334 1741 c-74 -45 -118 -175 -83 -244 69 -134 262 -10 246 157 -8
90 -88 133 -163 87z m97 -141 c1 -17 3 -20 6 -7 7 25 23 21 23 -6 0 -38 -26
-65 -72 -72 -24 -4 -50 -11 -59 -16 -25 -13 -52 22 -43 55 3 14 13 26 21 26
10 0 12 7 9 20 -3 11 -9 29 -12 40 -9 33 6 23 22 -15 20 -50 38 -45 30 8 -6
40 -5 41 9 17 8 -14 14 -33 15 -42 0 -12 5 -15 16 -11 16 6 15 26 -1 78 -3 11
3 4 14 -15 11 -19 21 -46 22 -60z"/>
<path d="M4390 1574 c0 -6 6 -17 14 -23 10 -9 17 -7 27 6 13 16 12 17 -3 5
-14 -11 -18 -10 -27 5 -6 10 -11 13 -11 7z"/>
<path d="M4340 1561 c0 -5 7 -14 15 -21 13 -10 18 -11 28 -1 9 10 8 11 -5 6
-13 -5 -18 -2 -18 9 0 9 -4 16 -10 16 -5 0 -10 -4 -10 -9z"/>
<path d="M4310 1528 c0 -4 4 -8 9 -8 6 0 12 4 15 8 3 5 -1 9 -9 9 -8 0 -15 -4
-15 -9z"/>
<path d="M3943 1693 c9 -2 23 -2 30 0 6 3 -1 5 -18 5 -16 0 -22 -2 -12 -5z"/>
<path d="M3990 1686 c0 -2 7 -7 16 -10 8 -3 12 -2 9 4 -6 10 -25 14 -25 6z"/>
<path d="M2530 1669 c0 -5 5 -7 10 -4 6 3 10 8 10 11 0 2 -4 4 -10 4 -5 0 -10
-5 -10 -11z"/>
<path d="M3170 1660 c0 -5 5 -10 10 -10 6 0 10 5 10 10 0 6 -4 10 -10 10 -5 0
-10 -4 -10 -10z"/>
<path d="M3834 1638 l-29 -33 33 29 c30 28 37 36 29 36 -2 0 -16 -15 -33 -32z"/>
<path d="M3884 1651 c-66 -40 -99 -111 -92 -193 16 -162 214 -137 259 33 16
59 5 110 -30 148 -35 37 -88 42 -137 12z m125 -47 c-14 -18 -24 -11 -15 11 3
9 11 13 16 10 8 -5 7 -11 -1 -21z m-26 -54 c-2 -47 -21 -132 -32 -143 -6 -6
-12 5 -16 27 -8 40 -25 49 -25 14 0 -26 -16 -55 -25 -46 -3 3 -11 35 -16 71
-13 80 -3 104 44 110 65 8 72 5 70 -33z m-123 16 c0 -3 -4 -8 -10 -11 -5 -3
-10 -1 -10 4 0 6 5 11 10 11 6 0 10 -2 10 -4z"/>
<path d="M3885 1540 c3 -5 8 -10 11 -10 2 0 4 5 4 10 0 6 -5 10 -11 10 -5 0
-7 -4 -4 -10z"/>
<path d="M4641 1644 c0 -11 3 -14 6 -6 3 7 2 16 -1 19 -3 4 -6 -2 -5 -13z"/>
<path d="M4849 1583 l-24 -28 28 24 c25 23 32 31 24 31 -2 0 -14 -12 -28 -27z"/>
<path d="M4071 1574 c0 -11 3 -14 6 -6 3 7 2 16 -1 19 -3 4 -6 -2 -5 -13z"/>
<path d="M4680 1556 c0 -2 7 -7 16 -10 8 -3 12 -2 9 4 -6 10 -25 14 -25 6z"/>
<path d="M2190 1520 c0 -11 5 -20 10 -20 6 0 10 9 10 20 0 11 -4 20 -10 20 -5
0 -10 -9 -10 -20z"/>
<path d="M5199 1443 c-12 -16 -12 -17 2 -6 9 7 20 9 24 5 5 -4 5 -1 1 6 -9 16
-11 15 -27 -5z"/>
<path d="M5135 1420 c-3 -6 1 -7 9 -4 18 7 21 14 7 14 -6 0 -13 -4 -16 -10z"/>
<path d="M5232 1405 c0 -16 2 -22 5 -12 2 9 2 23 0 30 -3 6 -5 -1 -5 -18z"/>
<path d="M5312 1410 c0 -14 2 -19 5 -12 2 6 2 18 0 25 -3 6 -5 1 -5 -13z"/>
<path d="M2549 1409 c-12 -7 -12 -9 1 -10 8 -1 19 -1 24 0 5 1 13 -4 17 -11 6
-9 9 -10 9 -1 0 18 -34 33 -51 22z"/>
<path d="M2618 1413 c7 -3 16 -2 19 1 4 3 -2 6 -13 5 -11 0 -14 -3 -6 -6z"/>
<path d="M2710 1411 c25 -4 51 -10 57 -14 8 -5 23 -1 35 7 21 15 18 16 -57 15
-67 -1 -73 -3 -35 -8z"/>
<path d="M2848 1413 c6 -2 18 -2 25 0 6 3 1 5 -13 5 -14 0 -19 -2 -12 -5z"/>
<path d="M2908 1413 c12 -2 32 -2 45 0 12 2 2 4 -23 4 -25 0 -35 -2 -22 -4z"/>
<path d="M3003 1408 c15 -5 27 -14 27 -19 0 -13 28 -11 36 3 5 7 2 9 -9 5 -9
-3 -18 0 -21 9 -3 8 -18 14 -33 13 l-28 -1 28 -10z"/>
<path d="M2131 1401 c-8 -5 -21 -7 -29 -3 -10 3 -13 1 -8 -6 4 -8 2 -10 -7 -6
-8 3 -30 -2 -48 -10 l-34 -14 28 -1 c20 -1 31 -8 39 -28 20 -47 17 -113 -3
-82 -7 11 -9 10 -9 -3 0 -21 11 -23 27 -7 9 9 10 6 6 -12 -4 -13 -11 -27 -17
-31 -6 -4 -7 -10 -3 -14 11 -11 35 17 41 46 2 14 9 38 15 53 6 16 11 34 10 40
0 7 -6 -4 -13 -23 -13 -35 -27 -43 -35 -19 -2 7 1 9 9 4 9 -6 10 -3 3 10 -13
23 -6 54 20 82 15 17 23 20 34 12 18 -16 16 -37 -4 -42 -14 -4 -12 -5 5 -6 24
-1 29 18 12 50 -12 21 -18 23 -39 10z m-44 -63 c-3 -7 -5 -2 -5 12 0 14 2 19
5 13 2 -7 2 -19 0 -25z"/>
<path d="M2180 1398 c0 -6 7 -8 15 -4 8 3 15 1 15 -4 0 -6 -4 -10 -9 -10 -6 0
-6 -12 -2 -27 4 -16 6 -35 4 -43 -4 -13 -3 -13 6 0 6 8 8 24 6 35 -3 11 -2 14
1 8 3 -8 25 -13 52 -13 26 0 54 -4 62 -10 9 -6 17 -5 22 3 4 7 8 -11 8 -39 0
-66 -21 -93 -78 -101 -47 -6 -46 -9 -42 87 1 45 1 45 -16 21 -14 -19 -15 -29
-5 -61 14 -46 15 -82 2 -61 -5 7 -14 11 -20 7 -6 -4 -13 4 -17 19 -7 30 -24
33 -31 6 -3 -11 -14 -21 -26 -23 -25 -4 -30 -40 -11 -83 l13 -30 1 27 c0 15
-5 30 -10 33 -18 11 9 45 35 45 14 0 25 -5 25 -11 0 -6 7 -9 14 -6 11 4 13 1
9 -11 -6 -15 -5 -15 11 1 10 9 22 14 28 11 7 -4 8 -2 4 4 -4 7 -2 12 3 12 6 0
12 -12 12 -27 l1 -28 7 25 c6 25 9 26 83 25 42 0 74 -3 72 -6 -2 -3 3 -6 11
-6 8 0 15 7 15 14 0 16 33 -12 44 -37 3 -8 4 -5 2 8 -3 17 1 22 16 22 10 0 17
4 14 9 -4 5 0 12 6 14 7 3 3 6 -10 6 -13 1 -20 -3 -17 -9 3 -6 -4 -10 -17 -10
-14 0 -19 3 -11 8 7 4 12 16 12 27 0 11 3 46 7 78 5 47 10 57 25 57 16 0 19
-8 19 -54 0 -30 4 -57 9 -60 5 -4 7 3 4 14 -4 14 0 20 11 20 14 0 21 -18 17
-44 -4 -21 12 -47 26 -42 8 3 23 1 34 -4 22 -12 26 -68 7 -90 -11 -12 -10 -12
5 -1 10 8 17 27 17 46 0 24 5 34 20 38 13 3 20 0 20 -9 0 -8 -6 -14 -12 -14
-9 0 -8 -4 2 -10 13 -9 13 -11 0 -21 -13 -9 -13 -10 0 -6 10 2 15 16 15 40 0
23 5 37 13 37 6 0 11 -3 11 -7 -3 -20 2 -24 15 -13 8 6 13 17 10 24 -3 8 2 16
12 20 12 5 15 2 9 -11 -4 -10 -9 -36 -12 -58 -7 -64 -9 -66 -38 -55 -16 6 -25
6 -25 0 0 -6 -6 -9 -12 -8 -7 2 -13 -6 -13 -17 0 -11 -4 -23 -10 -27 -5 -4 5
-8 23 -8 19 0 32 5 32 13 0 8 4 7 10 -3 9 -13 11 -13 20 0 7 11 10 11 10 2 0
-9 12 -11 48 -6 26 3 52 6 59 7 7 0 10 4 7 9 -4 5 3 12 15 15 11 3 18 9 15 14
-3 5 -10 6 -16 3 -7 -5 -9 2 -4 22 4 19 3 24 -3 15 -5 -7 -13 -11 -19 -7 -15
9 -23 -21 -8 -33 7 -6 15 -10 17 -8 2 1 1 -2 -3 -7 -4 -5 -14 -1 -23 7 -13 13
-14 21 -5 37 6 11 8 29 5 39 -3 12 0 21 11 25 9 4 14 13 10 21 -3 9 0 15 8 15
7 0 20 7 27 17 13 15 12 15 -18 0 -18 -10 -46 -17 -62 -17 -26 0 -30 4 -29 23
1 15 9 22 25 23 14 1 20 -2 16 -9 -3 -6 -1 -7 6 -3 16 10 4 26 -20 26 -11 0
-18 4 -14 9 3 5 1 13 -5 16 -6 4 -10 3 -9 -2 3 -19 -3 -32 -28 -65 -22 -27
-33 -33 -52 -28 -39 9 -63 49 -52 86 8 28 7 31 -9 27 -13 -4 -18 -15 -18 -48
-1 -25 4 -47 10 -51 7 -5 8 -2 3 7 -7 11 -5 11 11 -1 10 -8 21 -15 23 -17 2
-1 -18 -1 -45 0 l-49 2 3 38 c3 32 1 37 -17 37 -12 0 -21 5 -21 11 0 6 9 8 20
4 12 -4 20 -2 20 5 0 8 -10 10 -25 8 -14 -3 -25 -1 -25 3 0 5 5 9 10 9 6 0 10
7 10 15 0 11 12 15 49 15 56 0 70 12 45 38 -17 16 -17 16 -12 -5 4 -16 2 -20
-8 -16 -8 3 -12 9 -9 13 3 5 1 11 -4 14 -5 3 -12 -1 -15 -10 -5 -12 -14 -14
-34 -10 -20 5 -23 4 -12 -4 13 -8 12 -10 -5 -11 -51 -3 -101 4 -107 14 -6 9
-8 8 -8 -1 0 -8 9 -16 20 -19 17 -5 19 -11 13 -62 -3 -31 -5 -64 -5 -74 0 -9
-3 -15 -8 -12 -5 3 -14 -1 -22 -8 -8 -9 -21 -11 -33 -7 -11 4 -25 3 -32 -2 -8
-7 -17 -5 -27 5 -18 18 -9 32 11 16 13 -12 19 2 6 14 -11 12 -2 121 10 129 9
6 9 10 -1 16 -9 6 -6 12 13 20 36 16 45 14 15 -3 -14 -8 -20 -14 -13 -15 6 0
20 -3 30 -6 11 -4 14 -3 7 3 -9 6 -8 11 2 20 10 10 16 10 28 -2 13 -14 15 -13
13 5 -1 19 -8 20 -107 19 -58 -1 -94 -4 -80 -8 14 -3 25 -13 25 -21 0 -8 6
-20 15 -27 9 -8 10 -12 3 -13 -6 0 -18 7 -26 15 -8 8 -17 12 -20 9 -11 -12
-47 8 -45 24 2 12 -5 16 -29 18 -18 0 -33 -3 -33 -8z m184 -10 c-3 -4 -14 -8
-25 -8 -11 0 -18 4 -15 8 2 4 14 8 25 8 11 0 17 -4 15 -8z m1 -28 c3 -5 2 -10
-4 -10 -5 0 -13 5 -16 10 -3 6 -2 10 4 10 5 0 13 -4 16 -10z m-191 -155 c3 -8
1 -15 -4 -15 -6 0 -10 7 -10 15 0 8 2 15 4 15 2 0 6 -7 10 -15z m526 -15 c0
-5 -5 -10 -11 -10 -5 0 -7 5 -4 10 3 6 8 10 11 10 2 0 4 -4 4 -10z m170 -1 c0
-4 -7 -9 -15 -13 -8 -3 -15 -15 -15 -26 0 -33 -19 -60 -40 -60 -11 0 -20 -7
-20 -15 0 -8 -4 -15 -10 -15 -5 0 -10 4 -10 9 0 6 5 13 10 16 6 3 10 21 10 40
0 22 7 39 20 48 11 8 17 17 13 21 -4 4 7 6 25 4 18 -1 32 -5 32 -9z m-120
-119 c0 -5 -4 -10 -10 -10 -5 0 -10 5 -10 10 0 6 5 10 10 10 6 0 10 -4 10 -10z
m80 -12 c24 -4 23 -4 -6 -9 -25 -4 -30 -2 -32 15 0 12 2 16 6 9 4 -6 18 -13
32 -15z"/>
<path d="M2830 1179 c0 -5 5 -7 10 -4 6 3 10 8 10 11 0 2 -4 4 -10 4 -5 0 -10
-5 -10 -11z"/>
<path d="M2804 1136 c0 -13 4 -22 9 -19 10 6 9 43 -2 43 -5 0 -8 -11 -7 -24z"/>
<path d="M2685 1380 c10 -11 14 -20 8 -20 -5 0 -10 -7 -10 -15 0 -12 4 -11 18
4 11 12 26 17 39 14 14 -4 20 -1 20 11 0 9 -6 13 -15 10 -8 -3 -20 -2 -27 2
-7 5 -22 10 -32 11 -19 3 -19 3 -1 -17z"/>
<path d="M2795 1392 c-2 -2 -1 -10 1 -17 3 -7 1 -16 -5 -20 -6 -3 -11 2 -11
12 0 15 -2 16 -10 3 -13 -21 5 -36 25 -20 9 8 15 8 15 2 0 -6 -4 -14 -10 -17
-5 -3 -10 -12 -10 -18 1 -12 23 13 41 45 7 13 6 16 -5 12 -8 -3 -16 -2 -19 3
-3 4 8 8 24 8 19 1 28 -3 25 -11 -3 -8 2 -11 14 -9 13 3 19 -4 22 -26 5 -31
-1 -36 -20 -17 -9 9 -15 9 -24 -1 -11 -11 -10 -13 2 -9 16 5 50 -21 50 -39 0
-6 4 -14 9 -17 5 -4 8 2 6 11 -2 10 -4 18 -6 18 -1 0 -3 10 -4 22 -1 14 2 20
11 16 19 -7 18 2 -2 22 -12 12 -14 19 -6 27 8 8 13 3 18 -16 3 -14 10 -26 15
-26 13 0 11 6 -9 37 -18 29 -45 43 -36 20 3 -8 -2 -14 -10 -14 -8 0 -17 6 -20
14 -5 12 -60 16 -71 5z"/>
<path d="M2941 1393 c-2 -20 11 -43 20 -37 5 3 9 10 9 15 0 6 -4 8 -9 4 -5 -3
-12 3 -14 12 -3 10 -5 13 -6 6z"/>
<path d="M2974 1383 c7 -22 -36 -87 -49 -75 -5 4 -5 -1 -2 -11 4 -10 7 -22 7
-27 0 -4 8 -11 18 -15 13 -5 14 -3 5 6 -13 13 -6 42 8 33 5 -3 6 2 3 10 -4 11
0 16 12 16 15 0 16 2 5 9 -9 6 -10 11 -2 15 6 4 16 4 21 1 12 -7 14 8 3 19 -5
4 -8 13 -8 19 0 5 -6 12 -14 15 -9 3 -11 -1 -7 -15z"/>
<path d="M3095 1390 c-3 -5 -1 -10 4 -10 6 0 11 5 11 10 0 6 -2 10 -4 10 -3 0
-8 -4 -11 -10z"/>
<path d="M3999 1373 l-24 -28 28 24 c25 23 32 31 24 31 -2 0 -14 -12 -28 -27z"/>
<path d="M5076 1392 c6 -4 14 -14 17 -22 4 -10 6 -8 6 8 1 15 -5 22 -16 22
-11 0 -14 -3 -7 -8z"/>
<path d="M5277 1389 c7 -7 15 -10 18 -7 3 3 -2 9 -12 12 -14 6 -15 5 -6 -5z"/>
<path d="M1640 1206 c0 -158 2 -185 16 -190 9 -3 79 -6 157 -6 155 0 187 -5
187 -27 0 -8 5 -11 10 -8 6 3 10 -1 10 -10 0 -11 5 -15 14 -12 10 4 13 1 10
-7 -7 -18 11 -29 50 -30 19 -1 30 -6 29 -13 -3 -14 44 -46 120 -82 27 -13 50
-29 52 -35 21 -78 27 -128 17 -149 -6 -12 -13 -29 -14 -37 -2 -8 -10 -18 -18
-22 -8 -4 35 -6 95 -6 61 0 102 2 92 5 -12 3 -15 11 -11 29 6 23 -1 29 -32 25
-6 -1 -15 18 -19 41 -6 35 -8 39 -15 23 -8 -20 -9 -20 -9 1 -1 27 -11 36 -26
24 -10 -8 -16 -2 -24 21 -16 46 -14 58 9 52 16 -4 19 -2 14 13 -11 31 -35 53
-50 47 -9 -3 -14 2 -14 15 0 16 -8 23 -35 28 -36 6 -95 57 -95 81 0 13 -12 17
-39 14 -7 -2 -10 2 -6 8 3 7 -3 11 -17 12 -19 1 -18 3 7 9 22 6 25 8 9 9 -30
1 -42 21 -33 56 3 17 7 24 8 18 0 -7 6 -13 11 -13 6 0 5 8 -2 19 -7 11 -15 18
-19 15 -4 -2 -10 2 -12 8 -3 7 -4 0 -4 -16 1 -17 -4 -31 -12 -34 -11 -4 -13 4
-8 36 6 34 4 40 -13 45 -11 3 -23 13 -27 24 -5 10 -14 18 -20 18 -7 0 -12 5
-10 10 1 6 8 9 15 9 6 -1 12 2 12 7 0 5 -4 9 -10 9 -5 0 -10 9 -10 20 0 11 5
20 10 20 6 0 10 9 10 20 0 11 -4 20 -10 20 -5 0 -10 -9 -10 -20 0 -15 -7 -20
-29 -20 -34 0 -49 33 -23 51 16 10 16 10 0 5 -10 -3 -20 -1 -23 4 -3 5 5 10
17 12 20 4 18 6 -12 16 l-35 11 45 -2 c32 -1 45 -6 45 -17 0 -8 8 -16 18 -18
10 -2 16 2 15 10 -7 32 -33 37 -195 38 l-163 0 0 -184z m355 -46 c3 -5 1 -10
-4 -10 -6 0 -11 5 -11 10 0 6 2 10 4 10 3 0 8 -4 11 -10z m135 -220 c13 -8 13
-10 -2 -10 -9 0 -20 5 -23 10 -8 13 5 13 25 0z"/>
<path d="M2127 1362 c-24 -27 -21 -36 4 -11 11 11 19 23 16 25 -2 2 -11 -4
-20 -14z"/>
<path d="M5298 1358 c-10 -10 -14 -18 -9 -18 10 0 36 29 30 34 -2 1 -12 -6
-21 -16z"/>
<path d="M3043 1355 c-3 -9 -3 -19 1 -22 3 -4 6 2 6 13 0 16 2 17 10 4 5 -8
10 -11 10 -6 0 5 8 2 18 -5 14 -11 13 -10 -2 9 -22 26 -34 28 -43 7z"/>
<path d="M5190 1361 c0 -10 19 -25 25 -20 1 2 -3 10 -11 17 -8 7 -14 8 -14 3z"/>
<path d="M2403 1347 c4 -10 7 -31 8 -45 0 -27 0 -27 10 -4 5 13 12 21 17 18 4
-2 8 4 8 14 0 10 -4 16 -9 13 -4 -2 -15 1 -24 9 -15 11 -16 11 -10 -5z"/>
<path d="M3950 1340 c-9 -6 -10 -10 -3 -10 6 0 15 5 18 10 8 12 4 12 -15 0z"/>
<path d="M3893 1323 c9 -2 23 -2 30 0 6 3 -1 5 -18 5 -16 0 -22 -2 -12 -5z"/>
<path d="M5140 1320 c-9 -6 -10 -10 -3 -10 6 0 15 5 18 10 8 12 4 12 -15 0z"/>
<path d="M2736 1305 c12 -9 14 -14 6 -15 -7 0 -10 -5 -6 -11 4 -8 9 -7 14 2
11 17 1 39 -18 39 -13 0 -12 -3 4 -15z"/>
<path d="M2282 1270 c-1 -28 3 -40 14 -40 8 0 14 5 14 10 0 6 -4 10 -9 10 -6
0 -9 9 -8 21 1 19 2 19 14 3 10 -14 13 -15 13 -3 0 15 -19 39 -31 39 -4 0 -7
-18 -7 -40z"/>
<path d="M2431 1282 c0 -13 -5 -20 -11 -17 -5 3 -10 -3 -10 -14 0 -24 18 -28
26 -7 3 8 4 25 1 38 l-4 23 -2 -23z"/>
<path d="M2710 1270 c0 -23 4 -30 20 -30 24 0 26 13 5 30 -8 7 -12 16 -9 21 3
5 0 9 -5 9 -6 0 -11 -13 -11 -30z"/>
<path d="M2030 1250 c-13 -8 -12 -10 3 -10 9 0 17 5 17 10 0 12 -1 12 -20 0z"/>
<path d="M2915 1200 c-11 -13 -14 -20 -6 -20 13 0 41 24 41 34 0 12 -18 5 -35
-14z"/>
<path d="M2995 1210 c-3 -5 -1 -10 4 -10 6 0 11 5 11 10 0 6 -2 10 -4 10 -3 0
-8 -4 -11 -10z"/>
<path d="M2544 1175 c-3 -14 -14 -25 -23 -26 -10 0 -11 -2 -3 -6 6 -2 12 -11
12 -18 0 -7 -6 -16 -12 -18 -8 -3 -5 -6 5 -6 11 -1 15 -6 11 -13 -4 -7 -3 -8
4 -4 7 4 12 1 12 -8 0 -10 6 -13 15 -9 13 5 13 8 -5 20 -37 26 -15 95 26 79
11 -4 15 -16 12 -43 -1 -20 2 -38 7 -40 6 -2 10 18 10 46 0 31 -4 47 -11 44
-6 -2 -17 3 -24 12 -18 22 -29 19 -36 -10z"/>
<path d="M3245 1178 c-4 -13 -7 -32 -6 -43 1 -18 -1 -17 -14 5 l-16 25 5 -24
c7 -35 -4 -81 -21 -81 -10 0 -12 -6 -8 -20 4 -11 2 -20 -4 -20 -6 0 -11 6 -11
14 0 8 -5 18 -12 22 -8 5 -9 -4 -4 -34 5 -33 3 -42 -8 -42 -7 0 -16 -10 -20
-22 -5 -19 -8 -21 -16 -8 -8 13 -10 12 -10 -2 0 -10 -4 -18 -10 -18 -15 0 -12
-27 5 -44 16 -16 10 -50 -8 -39 -6 4 -7 1 -3 -6 13 -20 -3 -79 -22 -85 -9 -3
21 -3 68 0 47 3 89 9 94 14 7 7 5 10 -4 10 -7 0 -10 3 -7 7 4 3 15 -1 26 -11
21 -19 71 -13 71 9 0 24 -30 40 -50 27 -15 -9 -21 -9 -27 2 -4 8 -17 16 -28
18 -17 3 -15 6 13 18 34 16 35 17 32 69 -2 30 1 33 19 28 18 -4 21 -1 21 25 0
16 7 43 17 58 14 24 15 34 3 74 -7 25 -16 46 -21 46 -5 0 -11 11 -15 25 -8 31
-19 32 -29 3z m-115 -291 c0 -5 -4 -5 -10 -2 -5 3 -10 14 -10 23 0 15 2 15 10
2 5 -8 10 -19 10 -23z m0 -64 c0 -32 -5 -28 -14 10 -4 19 -3 26 4 22 5 -3 10
-18 10 -32z"/>
<path d="M2995 1181 c-3 -5 -1 -12 5 -16 5 -3 10 1 10 9 0 18 -6 21 -15 7z"/>
<path d="M2137 1128 c6 -56 13 -62 13 -10 0 22 -4 43 -9 46 -5 4 -7 -12 -4
-36z"/>
<path d="M2306 1160 c7 -8 11 -36 9 -62 -3 -40 -1 -46 13 -41 9 4 19 10 22 14
3 5 23 3 43 -3 25 -8 33 -14 25 -19 -7 -5 4 -6 25 -2 37 6 54 -11 20 -20 -14
-4 -13 -5 3 -6 35 -2 37 26 3 38 -23 8 -29 16 -29 40 0 17 -5 31 -11 31 -5 0
-7 5 -4 10 3 6 -4 10 -17 10 -13 0 -18 -4 -13 -8 6 -4 17 -16 25 -26 14 -18
13 -18 -9 -11 -21 6 -22 5 -10 -8 8 -8 19 -12 24 -9 6 3 6 1 0 -6 -6 -6 -20
-9 -33 -6 -17 5 -22 14 -22 41 0 20 -4 32 -10 28 -5 -3 -10 -19 -10 -36 0 -16
-4 -29 -10 -29 -5 0 -10 15 -10 34 0 20 -7 39 -17 47 -16 12 -17 12 -7 -1z"/>
<path d="M2633 1135 c0 -22 2 -30 4 -17 2 12 2 30 0 40 -3 9 -5 -1 -4 -23z"/>
<path d="M2926 1128 c3 -56 3 -56 14 -38 13 21 12 43 -3 64 -11 16 -13 12 -11
-26z"/>
<path d="M2227 1143 c-9 -9 -9 -43 1 -43 4 0 8 11 8 25 2 27 1 29 -9 18z"/>
<path d="M2569 1148 c-7 -25 -7 -48 1 -48 6 0 10 11 10 25 0 20 -7 35 -11 23z"/>
<path d="M2190 1111 c0 -7 -4 -9 -10 -6 -5 3 -10 2 -10 -4 0 -5 5 -13 10 -16
11 -7 26 22 16 32 -3 4 -6 1 -6 -6z"/>
<path d="M2258 1102 c-3 -9 -1 -26 3 -37 6 -15 8 -11 8 18 1 40 -4 48 -11 19z"/>
<path d="M2474 1112 c-9 -5 -8 -10 1 -19 11 -10 13 -9 12 7 -1 11 -1 20 -2 20
0 0 -5 -4 -11 -8z"/>
<path d="M2285 1080 c-3 -11 -2 -28 4 -37 8 -15 10 -11 11 20 0 41 -5 47 -15
17z"/>
<path d="M2210 1071 c0 -5 -3 -16 -6 -25 -5 -12 0 -16 19 -16 20 0 24 4 19 25
-4 23 -32 37 -32 16z"/>
<path d="M2495 1070 c-3 -5 -2 -10 4 -10 5 0 18 -3 28 -7 17 -6 17 -6 1 10
-19 20 -24 21 -33 7z"/>
<path d="M2088 1053 c6 -2 18 -2 25 0 6 3 1 5 -13 5 -14 0 -19 -2 -12 -5z"/>
<path d="M2640 1045 c0 -8 4 -15 10 -15 5 0 7 7 4 15 -4 8 -8 15 -10 15 -2 0
-4 -7 -4 -15z"/>
<path d="M2368 1043 c6 -2 18 -2 25 0 6 3 1 5 -13 5 -14 0 -19 -2 -12 -5z"/>
<path d="M2528 1033 c12 -2 30 -2 40 0 9 3 -1 5 -23 4 -22 0 -30 -2 -17 -4z"/>
<path d="M2598 1033 c6 -2 18 -2 25 0 6 3 1 5 -13 5 -14 0 -19 -2 -12 -5z"/>
<path d="M2955 779 c0 -35 2 -40 20 -35 11 3 27 6 35 6 13 0 13 2 1 9 -8 5
-20 7 -28 4 -8 -3 -13 2 -13 13 0 11 -4 24 -8 31 -4 6 -7 -6 -7 -28z"/>
<path d="M2860 765 c0 -8 4 -15 10 -15 5 0 7 7 4 15 -4 8 -8 15 -10 15 -2 0
-4 -7 -4 -15z"/>
<path d="M1925 760 c-3 -6 1 -7 9 -4 18 7 21 14 7 14 -6 0 -13 -4 -16 -10z"/>
<path d="M3231 642 c-13 -24 -5 -32 31 -32 25 0 29 4 26 23 -4 29 -43 35 -57
9z"/>
<path d="M1859 629 c-9 -17 -8 -24 2 -31 11 -7 9 -8 -4 -4 -28 9 -41 -4 -20
-19 16 -12 14 -13 -12 -8 -25 3 -27 2 -12 -7 11 -7 32 -8 60 -3 38 8 43 12 51
46 11 44 3 56 -26 38 -11 -7 -17 -8 -13 -2 3 6 2 11 -4 11 -6 0 -15 -10 -22
-21z"/>
<path d="M2891 619 c-14 -42 -15 -41 12 -37 17 2 23 11 25 36 4 43 -22 44 -37
1z"/>
<path d="M2770 580 c0 -5 5 -10 11 -10 5 0 7 5 4 10 -3 6 -8 10 -11 10 -2 0
-4 -4 -4 -10z"/>
</g>
</svg>
